<?xml version="1.0" encoding="UTF-8"?>
<svg width="400px" height="400px" viewBox="0 0 400 400" version="1.1" xmlns="http://www.w3.org/2000/svg" xmlns:xlink="http://www.w3.org/1999/xlink">
    <!-- Generator: Sketch 63.1 (92452) - https://sketch.com -->
    <title>bootstrap</title>
    <desc>Created with Sketch.</desc>
    <defs>
        <linearGradient x1="14.8591797%" y1="19.9301086%" x2="102.242188%" y2="75.2050629%" id="linearGradient-1">
            <stop stop-color="#9013FE" offset="0%"></stop>
            <stop stop-color="#6610F2" offset="100%"></stop>
        </linearGradient>
        <linearGradient x1="26.5606723%" y1="6.58202765%" x2="61.6028053%" y2="84.5230415%" id="linearGradient-2">
            <stop stop-color="#FFFFFF" offset="0%"></stop>
            <stop stop-color="#F1E5FC" offset="100%"></stop>
        </linearGradient>
    </defs>
    <g id="Page-1" stroke="none" stroke-width="1" fill="none" fill-rule="evenodd">
        <g id="Desktop-HD" transform="translate(-200.000000, -200.000000)">
            <g id="bootstrap" transform="translate(200.000000, 200.000000)">
                <rect id="Rectangle" stroke="#9013FE" stroke-width="15" fill="#000000" x="7.5" y="7.5" width="385" height="385" rx="50"></rect>
                <g id="Bootstrap_logo" transform="translate(43.000000, 75.000000)" fill-rule="nonzero">
                    <path d="M34.6084559,32.6715686 C34.0165441,15.6740196 47.2598039,0 65.1605392,0 L248.587623,0 C266.488358,0 279.731618,15.6740196 279.139706,32.6715686 C278.571078,48.9993873 279.309436,70.1501225 284.632353,87.3958333 C289.972426,104.694853 298.977328,115.629289 313.72549,117.034314 L313.72549,132.965686 C298.977328,134.370711 289.972426,145.305147 284.632353,162.604167 C279.309436,179.849877 278.571078,201.000613 279.139706,217.329044 C279.731618,234.32598 266.488358,250 248.587623,250 L65.1605392,250 C47.2598039,250 34.0165441,234.32598 34.6090686,217.329044 C35.1770833,201.000613 34.4387255,179.849877 29.1151961,162.604167 C23.7757353,145.305147 14.7487745,134.370711 0,132.965686 L0,117.034314 C14.7481618,115.629289 23.7757353,104.694853 29.1151961,87.3958333 C34.4387255,70.1501225 35.1770833,48.9993873 34.6084559,32.6715686 Z" id="Path" fill="url(#linearGradient-1)"></path>
                    <path d="M163.666054,191.456495 C192.647059,191.456495 210.110907,177.266544 210.110907,153.86152 C210.110907,136.16973 197.650123,123.36152 179.147672,121.333946 L179.147672,120.596814 C192.741422,118.385417 203.408701,105.761642 203.408701,91.6636029 C203.408701,71.5759804 187.549632,58.4908088 163.382966,58.4908088 L109.007966,58.4908088 L109.007966,191.456495 L163.666054,191.456495 Z M130.153799,75.3535539 L158.285539,75.3535539 C173.578431,75.3535539 182.262868,82.1721814 182.262868,94.5196078 C182.262868,107.696691 172.162377,115.068015 153.848652,115.068015 L130.153799,115.068015 L130.153799,75.3535539 L130.153799,75.3535539 Z M130.153799,174.594363 L130.153799,130.825368 L158.096201,130.825368 C178.109069,130.825368 188.49326,138.196691 188.49326,152.571691 C188.49326,166.946078 178.39277,174.594363 159.323529,174.594363 L130.153799,174.594363 L130.153799,174.594363 Z" id="Shape" stroke="#FFFFFF" fill="url(#linearGradient-2)"></path>
                </g>
            </g>
        </g>
    </g>
</svg>