<?xml version="1.0" encoding="UTF-8"?>
<svg width="400px" height="400px" viewBox="0 0 400 400" version="1.1" xmlns="http://www.w3.org/2000/svg" xmlns:xlink="http://www.w3.org/1999/xlink">
    <!-- Generator: Sketch 63.1 (92452) - https://sketch.com -->
    <title>css</title>
    <desc>Created with Sketch.</desc>
    <g id="Page-1" stroke="none" stroke-width="1" fill="none" fill-rule="evenodd">
        <g id="Desktop-HD" transform="translate(-200.000000, -200.000000)">
            <g id="css" transform="translate(200.000000, 200.000000)">
                <rect id="Rectangle" stroke="#264DE4" stroke-width="15" fill="#000000" x="7.5" y="7.5" width="385" height="385" rx="50"></rect>
                <g id="CSS3_logo_and_wordmark" transform="translate(93.000000, 50.000000)" fill-rule="nonzero">
                    <polygon id="polygon2989" fill="#264DE4" points="212.387213 59.3367366 193.091387 275.498915 106.355933 299.544832 19.8592969 275.532781 0.583908055 59.3367366"></polygon>
                    <polygon id="polygon2991" fill="#2965F1" points="176.572044 261.73445 193.061608 77.013969 106.48556 77.013969 106.48556 281.165158"></polygon>
                    <polygon id="polygon2993" fill="#EBEBEB" points="44.772318 157.197975 47.1488237 183.71324 106.48556 183.71324 106.48556 157.197975"></polygon>
                    <polygon id="polygon2995" fill="#EBEBEB" points="106.48556 103.529818 106.393887 103.529818 39.9971179 103.529818 42.4074903 130.045666 106.48556 130.045666"></polygon>
                    <polygon id="polygon2997" fill="#EBEBEB" points="106.48556 253.649075 106.48556 226.061755 106.369363 226.092702 76.8387966 218.118854 74.9510219 196.971456 60.6014814 196.971456 48.3335732 196.971456 52.0483962 238.604684 106.363524 253.682942"></polygon>
                    <polygon id="path2999" stroke="#000000" fill="#264DE4" points="50.430387 0.583908055 82.54533 0.583908055 82.54533 14.0137933 63.8602723 14.0137933 63.8602723 27.4436786 82.54533 27.4436786 82.54533 40.8735639 50.430387 40.8735639"></polygon>
                    <polygon id="path3001" stroke="#000000" fill="#264DE4" points="88.9683187 0.583908055 121.083262 0.583908055 121.083262 12.2620692 102.398204 12.2620692 102.398204 14.5977014 121.083262 14.5977014 121.083262 41.4574719 88.9683187 41.4574719 88.9683187 29.1954028 107.653376 29.1954028 107.653376 26.8597705 88.9683187 26.8597705"></polygon>
                    <polygon id="path3003" stroke="#000000" fill="#264DE4" points="127.50625 0.583908055 159.621193 0.583908055 159.621193 12.2620692 140.936136 12.2620692 140.936136 14.5977014 159.621193 14.5977014 159.621193 41.4574719 127.50625 41.4574719 127.50625 29.1954028 146.191308 29.1954028 146.191308 26.8597705 127.50625 26.8597705"></polygon>
                    <polygon id="polygon3005" fill="#FFFFFF" points="139.044857 183.71324 135.967078 218.101921 106.393887 226.083944 106.393887 253.670096 160.752223 238.604684 161.151032 234.124942 167.381915 164.31815 168.028885 157.197975 172.815764 103.529818 106.393887 103.529818 106.393887 130.045666 143.756995 130.045666 141.344287 157.197975 106.393887 157.197975 106.393887 183.71324"></polygon>
                </g>
            </g>
        </g>
    </g>
</svg>