<?xml version="1.0" encoding="UTF-8"?>
<svg width="400px" height="400px" viewBox="0 0 400 400" version="1.1" xmlns="http://www.w3.org/2000/svg" xmlns:xlink="http://www.w3.org/1999/xlink">
    <!-- Generator: Sketch 63.1 (92452) - https://sketch.com -->
    <title>html</title>
    <desc>Created with Sketch.</desc>
    <g id="Page-1" stroke="none" stroke-width="1" fill="none" fill-rule="evenodd">
        <g id="Desktop-HD" transform="translate(-200.000000, -200.000000)">
            <g id="html" transform="translate(200.000000, 200.000000)">
                <rect id="Rectangle" stroke="#E44D26" stroke-width="15" fill="#000000" x="7.5" y="7.5" width="385" height="385" rx="50"></rect>
                <g id="HTML5_logo_and_wordmark" transform="translate(93.000000, 50.000000)" fill-rule="nonzero">
                    <path d="M20.15625,0 L33.6328125,0 L33.6328125,13.359375 L46.0546875,13.359375 L46.0546875,0 L59.53125,0 L59.53125,40.4296875 L46.0546875,40.4296875 L46.0546875,26.953125 L33.75,26.953125 L33.75,40.4296875 L20.15625,40.4296875 M77.34375,13.4765625 L65.4492188,13.4765625 L65.4492188,0 L102.773438,0 L102.773438,13.4765625 L90.8203125,13.4765625 L90.8203125,40.4296875 L77.34375,40.4296875 M108.691406,0 L122.8125,0 L131.484375,14.2382812 L140.15625,0 L154.277344,0 L154.277344,40.4296875 L140.800781,40.4296875 L140.800781,20.390625 L131.367188,34.921875 L121.933594,20.390625 L121.933594,40.4296875 L108.691406,40.4296875 M160.957031,0 L174.433594,0 L174.433594,27.0703125 L193.535156,27.0703125 L193.535156,40.4296875 L160.957031,40.4296875" id="Shape" fill="#E44D26"></path>
                    <polyline id="Path" fill="#E44D26" points="19.6875 275.976562 0.3515625 58.9453125 212.929688 58.9453125 193.59375 275.859375 106.464844 300"></polyline>
                    <polyline id="Path" fill="#F16529" points="106.640625 281.542969 106.640625 76.7578125 193.535156 76.7578125 176.953125 261.914062"></polyline>
                    <path d="M39.84375,103.300781 L106.640625,103.300781 L106.640625,129.902344 L69.0234375,129.902344 L71.484375,157.148438 L106.640625,157.148438 L106.640625,183.691406 L47.109375,183.691406 M48.28125,197.050781 L75,197.050781 L76.875,218.320312 L106.640625,226.289062 L106.640625,254.0625 L52.03125,238.828125" id="Shape" fill="#EBEBEB"></path>
                    <path d="M173.203125,103.300781 L106.523438,103.300781 L106.523438,129.902344 L170.742187,129.902344 M168.339844,157.148438 L106.523438,157.148438 L106.523438,183.75 L139.335938,183.75 L136.230469,218.320312 L106.523438,226.289062 L106.523438,253.945312 L161.015625,238.828125" id="Shape" fill="#FFFFFF"></path>
                </g>
            </g>
        </g>
    </g>
</svg>