<?xml version="1.0" encoding="UTF-8"?>
<svg width="400px" height="400px" viewBox="0 0 400 400" version="1.1" xmlns="http://www.w3.org/2000/svg" xmlns:xlink="http://www.w3.org/1999/xlink">
    <!-- Generator: Sketch 63.1 (92452) - https://sketch.com -->
    <title>javascript</title>
    <desc>Created with Sketch.</desc>
    <g id="Page-1" stroke="none" stroke-width="1" fill="none" fill-rule="evenodd">
        <g id="Desktop-HD" transform="translate(-200.000000, -200.000000)">
            <g id="javascript" transform="translate(200.000000, 200.000000)">
                <rect id="Rectangle" stroke="#F7DF1E" stroke-width="15" fill="#000000" x="7.5" y="7.5" width="385" height="385" rx="50"></rect>
                <g id="Unofficial_JavaScript_logo_2" transform="translate(75.000000, 75.000000)" fill-rule="nonzero">
                    <rect id="Rectangle" fill="#F7DF1E" x="0" y="0" width="250" height="250"></rect>
                    <path d="M167.936508,195.313492 C172.972222,203.535714 179.52381,209.579365 191.111111,209.579365 C200.845238,209.579365 207.063492,204.714286 207.063492,197.992063 C207.063492,189.936508 200.674603,187.083333 189.960317,182.396825 L184.087302,179.876984 C167.134921,172.654762 155.873016,163.607143 155.873016,144.480159 C155.873016,126.861111 169.297619,113.448413 190.277778,113.448413 C205.214286,113.448413 215.952381,118.646825 223.690476,132.257937 L205.396825,144.003968 C201.369048,136.781746 197.02381,133.936508 190.277778,133.936508 C183.396825,133.936508 179.035714,138.301587 179.035714,144.003968 C179.035714,151.051587 183.400794,153.904762 193.480159,158.269841 L199.353175,160.785714 C219.313492,169.345238 230.583333,178.071429 230.583333,197.690476 C230.583333,218.84127 213.968254,230.428571 191.654762,230.428571 C169.837302,230.428571 155.742063,220.031746 148.845238,206.404762 L167.936508,195.313492 Z M84.9484127,197.349206 C88.6388889,203.896825 91.9960317,209.43254 100.06746,209.43254 C107.785714,209.43254 112.654762,206.412698 112.654762,194.670635 L112.654762,114.789683 L136.146825,114.789683 L136.146825,194.988095 C136.146825,219.313492 121.884921,230.384921 101.06746,230.384921 C82.2579365,230.384921 71.3650794,220.650794 65.8253968,208.926587 L84.9484127,197.349206 Z" id="Shape" fill="#000000"></path>
                </g>
            </g>
        </g>
    </g>
</svg>