<?xml version="1.0" encoding="UTF-8"?>
<svg width="400px" height="400px" viewBox="0 0 400 400" version="1.1" xmlns="http://www.w3.org/2000/svg" xmlns:xlink="http://www.w3.org/1999/xlink">
    <!-- Generator: Sketch 63.1 (92452) - https://sketch.com -->
    <title>mongodb</title>
    <desc>Created with Sketch.</desc>
    <g id="Page-1" stroke="none" stroke-width="1" fill="none" fill-rule="evenodd">
        <g id="Desktop-HD" transform="translate(-200.000000, -200.000000)">
            <g id="mongodb" transform="translate(200.000000, 200.000000)">
                <rect id="Rectangle" stroke="#599636" stroke-width="15" fill="#000000" x="7.5" y="7.5" width="385" height="385" rx="50"></rect>
                <g id="mongodb-icon-1" transform="translate(133.000000, 50.000000)" fill-rule="nonzero">
                    <path d="M66.4372932,0.880700179 L74.4399127,15.9113814 C76.2390965,18.6851231 78.1882123,21.1402593 80.4840457,23.426722 C87.2149056,30.0736396 93.4888608,37.1678424 99.2630265,44.660839 C112.8225,62.4652619 121.968351,82.237542 128.499763,103.621591 C132.416736,116.684415 134.543896,130.084586 134.703199,143.634689 C135.359151,184.144436 121.471701,218.928656 93.4719037,247.837416 C88.9174366,252.421744 83.9971446,256.627497 78.759828,260.412961 C75.9860863,260.412961 74.6741814,258.285801 73.5309501,256.327315 C71.449041,252.695648 70.0634225,248.707228 69.4453036,244.567025 C68.4613749,239.666123 67.8147933,234.765222 68.1333987,229.705017 L68.1333987,227.418555 C67.9085007,226.931276 65.4627353,2.03330229 66.4372932,0.880700179 Z" id="Path" fill="#599636"></path>
                    <path d="M66.4372932,0.384050488 C66.109317,-0.271901934 65.7813407,0.224747757 65.4533645,0.543353219 C65.6126673,3.82311533 64.4694359,6.74678898 62.6796229,9.53927215 C60.7117656,12.3130138 58.1066974,14.4401738 55.4922585,16.7266365 C40.9675977,29.3021816 29.5352841,44.4921655 20.3800624,61.4813332 C8.19808884,84.3459605 1.91968708,108.850469 0.139244795,134.648141 C-0.676010358,143.953294 3.08165995,176.788398 6.01470435,186.262225 C14.0173239,211.413315 28.3920527,232.48813 47.0117307,250.779831 C51.5846562,255.184083 56.4761871,259.26973 61.5363915,263.196074 C63.0075991,263.196074 63.1669018,261.884169 63.5042488,260.909611 C64.14926,258.82426 64.6409727,256.694548 64.9754563,254.537502 L68.2552185,230.042364 L66.4372932,0.384050488 Z" id="Path" fill="#6CAC48"></path>
                    <path d="M74.4399127,270.364697 C74.7678889,266.616397 76.5670727,263.505308 78.5255592,260.403591 C76.557702,259.588335 75.0958651,257.967196 73.9526338,256.158641 C72.9668458,254.446274 72.1508328,252.641629 71.5162391,250.770461 C69.2297763,243.911073 68.7424974,236.714337 68.086545,229.705017 L68.086545,225.460068 C67.2712898,226.11602 67.1026163,231.663504 67.1026163,232.48813 C66.6257735,239.89642 65.6426732,247.26341 64.1602012,254.537502 C63.6729222,257.479917 63.344946,260.412961 61.5363915,263.0274 C61.5363915,263.355376 61.5363915,263.683353 61.6956942,264.170632 C64.6381094,272.829204 65.4439938,281.647078 65.9406435,290.633627 L65.9406435,293.913389 C65.9406435,297.830362 65.7813407,297.005736 69.0329906,298.317641 C70.3448955,298.80492 71.8067323,298.973593 73.1186371,299.948151 C74.1025658,299.948151 74.2618685,299.132896 74.2618685,298.476943 L73.7745895,293.088763 L73.7745895,278.058081 C73.6152868,275.434272 74.1025658,272.829204 74.430542,270.374067 L74.4399127,270.364697 Z" id="Path" fill="#C2BFBF"></path>
                </g>
            </g>
        </g>
    </g>
</svg>