<?xml version="1.0" encoding="UTF-8"?>
<svg width="400px" height="400px" viewBox="0 0 400 400" version="1.1" xmlns="http://www.w3.org/2000/svg" xmlns:xlink="http://www.w3.org/1999/xlink">
    <!-- Generator: Sketch 63.1 (92452) - https://sketch.com -->
    <title>mongodb</title>
    <desc>Created with Sketch.</desc>
    <g id="Page-1" stroke="none" stroke-width="1" fill="none" fill-rule="evenodd">
        <g id="Desktop-HD" transform="translate(-200.000000, -200.000000)">
            <g id="mongodb" transform="translate(200.000000, 200.000000)">
                <rect id="Rectangle" stroke="#10AA50" stroke-width="15" fill="#000000" x="7.5" y="7.5" width="385" height="385" rx="50"></rect>
                <g id="MongoDB_Logo" transform="translate(21.000000, 152.000000)" fill-rule="nonzero">
                    <path d="M41.7869863,37.8503425 C36.8059932,15.8767123 26.4243151,10.0270548 23.7760274,5.89195205 C22.6839937,4.07033819 21.7165971,2.17684945 20.8804795,0.224486301 C20.7405822,2.1765411 20.4835616,3.40633562 18.8243151,4.88664384 C15.4928082,7.85702055 1.34366438,19.3871575 0.152910959,44.3539384 C-0.956506849,67.6321918 17.2659247,81.9863014 19.6734589,83.469863 C21.5246575,84.3808219 23.7792808,83.4893836 24.8789384,82.6532534 C33.6631849,76.6246575 45.6650685,60.5527397 41.7967466,37.8503425" id="Path" fill="#10AA50"></path>
                    <path d="M21.635274,71.0743151 C21.1765411,76.8361301 20.8479452,80.1839041 19.6832192,83.4763699 C19.6832192,83.4763699 20.447774,88.9616438 20.984589,94.7722603 L22.884589,94.7722603 C23.3378022,90.6804939 24.0297928,86.6187157 24.9570205,82.6077055 C22.4974315,81.3974315 21.7296233,76.130137 21.635274,71.0743151 Z" id="Path" fill="#B8C4C2"></path>
                    <path d="M24.9537671,82.6109589 L24.9537671,82.6109589 C22.4681507,81.4625 21.7491438,76.084589 21.6385274,71.0743151 C22.2532297,62.809506 22.432416,54.5180668 22.1753425,46.2344178 C22.0452055,41.8878425 22.2371575,5.9765411 21.1049658,0.719006849 C21.8794471,2.49968023 22.7717796,4.22674031 23.7760274,5.88869863 C26.4243151,10.0270548 36.8092466,15.8767123 41.7869863,37.8503425 C45.6650685,60.5136986 33.7282534,76.5433219 24.9537671,82.6109589 Z" id="Path" fill="#12924F"></path>
                    <path d="M352.57363,74.6660959 C349.602515,74.6658103 347.190314,72.2643466 347.176716,69.2932622 C347.163233,66.3221779 349.553446,63.8988278 352.524435,63.8714619 C355.495424,63.844096 357.929871,66.223006 357.971062,69.1938356 C358.01015,70.6437728 357.456537,72.047 356.437988,73.079669 C355.41944,74.1123381 354.023968,74.6852184 352.57363,74.6660959 M352.57363,64.3592466 C350.584919,64.3460831 348.784457,65.5332255 348.013057,67.3662803 C347.241657,69.1993351 347.651517,71.3166412 349.051232,72.7294203 C350.450947,74.1421995 352.564355,74.5717107 354.404496,73.8173731 C356.244638,73.0630355 357.448455,71.2736796 357.453767,69.2849315 C357.479348,67.9788049 356.974907,66.7179902 356.05546,65.7899613 C355.136012,64.8619325 353.879938,64.3458004 352.57363,64.3592466 M353.875,72.6815068 L352.482534,69.6785959 L351.360103,69.6785959 L351.360103,72.6815068 L350.543493,72.6815068 L350.543493,65.8493151 L352.557363,65.8493151 C354.057192,65.8493151 354.681849,66.5 354.681849,67.7590753 C354.681849,68.7611301 354.210103,69.3857877 353.331678,69.5777397 L354.769692,72.6717466 L353.875,72.6815068 Z M351.392637,68.9726027 L352.57363,68.9726027 C353.530137,68.9726027 353.894521,68.6472603 353.894521,67.7753425 C353.894521,66.9034247 353.546404,66.607363 352.469521,66.607363 L351.392637,66.607363 L351.392637,68.9726027 Z" id="Shape" fill="#FFFFFF"></path>
                    <path d="M272.243322,69.7469178 C273.70411,70.9148973 276.622432,71.3964041 279.19589,71.3964041 C282.530651,71.3964041 285.800342,70.7782534 288.995205,67.8924658 C292.24863,64.9351027 294.486986,60.409589 294.486986,53.1837329 C294.486986,46.2409247 291.845205,40.6059932 286.425,37.3070205 C283.366781,35.3842466 279.40411,34.6261986 274.885103,34.6261986 C273.583733,34.6261986 272.243322,34.6945205 271.482021,35.0393836 C271.169908,35.2857613 270.948934,35.6292441 270.85411,36.015411 C270.717466,37.2517123 270.717466,46.6671233 270.717466,52.2337329 C270.717466,57.9402397 270.717466,65.8981164 270.85411,66.8741438 C270.925685,67.7005137 271.342123,69.1515411 272.243322,69.7599315 M258.370719,31.5354452 C259.551712,31.5354452 264.041438,31.740411 266.130137,31.740411 C270.034247,31.740411 272.731336,31.5354452 280.028767,31.5354452 C286.145205,31.5354452 291.292123,33.1849315 294.971747,36.3440068 C299.422432,40.1960616 301.803938,45.5544521 301.803938,52.0840753 C301.803938,61.3628425 297.574486,66.7244863 293.32226,69.7469178 C289.092808,72.9092466 283.591267,74.6953767 275.753767,74.6953767 C271.582877,74.6953767 264.422089,74.5587329 258.445548,74.490411 L258.321918,74.490411 C258.042123,73.9405822 258.832705,71.7965753 259.320719,71.7412671 C260.947432,71.5590753 261.376884,71.4940068 262.125171,71.1849315 C263.3875,70.667637 263.683562,70.0234589 263.823459,67.7558219 C264.031678,63.4938356 263.963356,58.4087329 263.963356,52.6339041 C263.963356,48.5118151 264.031678,40.4693493 263.895034,37.9251712 C263.683562,35.7974315 262.785616,35.2476027 260.966952,34.8344178 C259.677248,34.5604519 258.374098,34.3541199 257.062842,34.2162671 C256.926199,33.8030822 257.993322,31.9388699 258.341438,31.5354452" id="Shape" fill="#FFFFFF"></path>
                    <path d="M319.030822,35.0231164 C318.754281,35.0914384 318.406164,35.7811644 318.406164,36.122774 C318.334589,38.5986301 318.266267,45.0566781 318.266267,49.5236301 C318.302248,49.6982106 318.439473,49.8341532 318.614384,49.8684932 C319.515582,49.9368151 321.740925,50.0083904 323.618151,50.0083904 C326.259932,50.0083904 327.789041,49.6635274 328.621918,49.2503425 C330.84726,48.1506849 331.875342,45.7431507 331.875342,43.1339041 C331.875342,37.1541096 327.704452,34.8864726 321.519692,34.8864726 C320.683611,34.87591 319.847766,34.9215609 319.017808,35.0231164 M334.796918,62.5145548 C334.796918,56.4664384 330.346233,53.0308219 322.212671,53.0308219 C321.867808,53.0308219 319.284589,52.9625 318.669692,53.0991438 C318.461473,53.1674658 318.253253,53.3041096 318.253253,53.4440068 C318.253253,57.7743151 318.181678,64.7138699 318.393151,67.4630137 C318.533048,68.6309932 319.369178,70.2804795 320.407021,70.7619863 C321.519692,71.380137 324.021575,71.5167808 325.758904,71.5167808 C330.554452,71.5167808 334.796918,68.8392123 334.796918,62.5145548 M306.472603,31.6558219 C307.100514,31.6558219 308.948459,31.8607877 313.675685,31.8607877 C318.123116,31.8607877 321.737671,31.7241438 326.038699,31.7241438 C331.390582,31.7241438 338.756336,33.6501712 338.756336,41.6210616 C338.756336,45.5251712 335.977911,48.7005137 332.363356,50.2133562 C332.155137,50.2816781 332.155137,50.4183219 332.363356,50.4866438 C337.507021,51.7880137 342.022774,54.9535959 342.022774,61.0017123 C342.022774,66.9131849 338.339897,70.6253425 332.988014,72.9613014 C329.734589,74.4058219 325.690582,74.8840753 321.601027,74.8840753 C318.474486,74.8840753 310.093664,74.5587329 305.43476,74.6107877 C304.946747,74.4058219 305.880479,72.2032534 306.296918,71.8616438 C307.364276,71.8288291 308.423345,71.6627006 309.449486,71.3671233 C311.11524,70.9571918 311.313699,70.4203767 311.521918,67.9445205 C311.661815,65.8135274 311.661815,58.1842466 311.661815,52.7542808 C311.661815,45.3299658 311.73339,40.3164384 311.661815,37.8405822 C311.593493,35.9178082 310.89726,35.2964041 309.57637,34.9547945 C308.535274,34.7465753 306.797945,34.5416096 305.408733,34.3366438 C305.060616,33.9917808 306.130993,31.9291096 306.475856,31.6558219" id="Shape" fill="#FFFFFF"></path>
                    <path d="M57.1789384,74.6660959 C56.9999269,74.2261686 56.927465,73.7501499 56.9674658,73.2768836 C56.9518735,72.9542883 57.0250149,72.6335914 57.1789384,72.3496575 C58.077917,72.2200091 58.9686666,72.0386003 59.8467466,71.8063356 C61.0765411,71.5005137 61.5385274,70.8303082 61.6101027,69.2621575 C61.8118151,65.5565068 61.8248288,58.6039384 61.7532534,53.7172945 L61.7532534,53.5741438 C61.7532534,53.047089 61.7532534,52.3313356 61.1025685,51.8270548 C59.9589169,51.1095505 58.7172969,50.5616158 57.4164384,50.2003425 C56.8340753,50.027911 56.5119863,49.722089 56.5282534,49.3642123 C56.5445205,49.0063356 56.9121575,48.5833904 57.6702055,48.4337329 C59.6840753,48.2287671 64.9611301,46.9696918 67.0335616,46.0131849 C67.2469646,46.2912929 67.3459055,46.6404961 67.3101027,46.9892123 C67.3101027,47.2039384 67.2775685,47.4316781 67.2547945,47.6659247 C67.1962329,48.3556507 67.1311644,49.139726 67.1311644,49.9205479 C67.1571577,50.1140257 67.290502,50.2760826 67.4753524,50.338849 C67.6602028,50.4016154 67.8646543,50.3542577 68.0030822,50.2166096 C71.9494863,47.1226027 75.4859589,46.0196918 77.2981164,46.0196918 C80.2815068,46.0196918 82.6044521,47.4446918 84.4035959,50.3792808 C84.4874843,50.5233509 84.6403423,50.61334 84.8070205,50.6167808 C84.9582531,50.6153704 85.0992192,50.5400264 85.1844178,50.4150685 C88.8119863,47.6626712 92.4070205,46.0196918 94.8145548,46.0196918 C100.501541,46.0196918 103.90137,50.2784247 103.90137,57.4066781 C103.90137,59.4563356 103.881849,62.0558219 103.862329,64.4796233 C103.846062,66.607363 103.829795,68.6017123 103.829795,69.9811644 C103.829795,70.3065068 104.278767,71.2434932 104.952226,71.4289384 C105.785103,71.8356164 106.985616,72.0438356 108.504966,72.3041096 L108.563527,72.3041096 C108.677397,72.7140411 108.436644,74.3049658 108.205651,74.6303082 C107.828253,74.6303082 107.307705,74.597774 106.657021,74.5652397 C105.476027,74.5066781 103.855822,74.4253425 101.972089,74.4253425 C98.1916096,74.4253425 96.2167808,74.4969178 94.3297945,74.6205479 C94.1866438,74.1488014 94.1378425,72.6261986 94.310274,72.307363 C95.0917014,72.1851633 95.8652026,72.0167747 96.6267123,71.8030822 C97.8304795,71.4061644 98.1785959,70.859589 98.2534247,69.2621575 C98.2827055,68.1267123 98.5006849,58.1224315 98.1135274,55.7474315 C97.7556507,53.284589 95.9011986,50.4020548 91.8441781,50.4020548 C90.3378425,50.4020548 87.9075342,51.0299658 85.5910959,52.7868151 C85.4474119,52.9496805 85.3666442,53.1585227 85.3633562,53.3756849 L85.3633562,53.4244863 C85.6366438,54.7063356 85.6366438,56.202911 85.6366438,58.4640411 C85.6366438,59.765411 85.6366438,61.122089 85.6203767,62.4787671 C85.6041096,65.2376712 85.5910959,67.840411 85.6366438,69.8087329 C85.6366438,71.1491438 86.4467466,71.4712329 87.1006849,71.7282534 C87.4553082,71.8063356 87.7351027,71.8746575 88.0181507,71.939726 C88.5614726,72.0731164 89.1275685,72.2097603 89.9702055,72.3431507 C90.094939,72.9146895 90.0837954,73.5075251 89.9376712,74.0739726 C89.9031916,74.2865544 89.8196467,74.4881762 89.6936644,74.6628425 C87.5919521,74.5912671 85.4349315,74.5294521 82.3214041,74.5294521 C81.377911,74.5294521 79.8390411,74.5684932 78.4791096,74.6042808 C77.3761986,74.6335616 76.3351027,74.6628425 75.7429795,74.6660959 C75.5828415,74.2882091 75.511605,73.8785995 75.5347603,73.4688356 C75.5015228,73.0827426 75.5770317,72.6950548 75.7527397,72.3496575 L76.5888699,72.1967466 C77.317637,72.0666096 77.9488014,71.9559932 78.5409247,71.8063356 C79.5690068,71.4809932 79.9561644,70.9214041 80.0309932,69.610274 C80.2327055,66.5520548 80.3888699,57.7385274 79.9561644,55.5327055 C79.2208904,51.9929795 77.2070205,50.197089 73.9666096,50.197089 C72.069863,50.197089 69.672089,51.1113014 67.7135274,52.5785959 C67.3326695,52.9494326 67.1239295,53.4624377 67.1376712,53.9938356 C67.1376712,55.0446918 67.1376712,56.2940068 67.1376712,57.6344178 C67.1376712,62.0590753 67.1083904,67.5671233 67.2157534,69.9486301 C67.2808219,70.6839041 67.5410959,71.5558219 68.9172945,71.8746575 C69.219863,71.9625 69.740411,72.047089 70.3455479,72.1479452 C70.6936644,72.2065068 71.0743151,72.2683219 71.4679795,72.3398973 C71.5931284,73.1189675 71.5295335,73.9166934 71.2825342,74.6660959 C70.6773973,74.6660959 69.932363,74.6270548 69.0799658,74.5912671 C67.7785959,74.5327055 66.1518836,74.4611301 64.3136986,74.4611301 C62.140411,74.4611301 60.6275685,74.5327055 59.4140411,74.5912671 C58.5974315,74.6303082 57.8914384,74.6628425 57.1854452,74.6660959" id="Path" fill="#FFFFFF"></path>
                    <path d="M126.94863,48.9607877 C125.77439,48.9364039 124.619372,49.2613942 123.630137,49.8945205 C121.216096,51.3618151 119.986301,54.2931507 119.986301,58.6006849 C119.986301,66.6626712 124.023801,72.2943493 129.805137,72.2943493 C131.355277,72.3435028 132.867257,71.8081551 134.041096,70.7945205 C135.817466,69.3467466 136.760959,66.3861301 136.760959,62.2412671 C136.760959,54.2996575 132.814555,48.9607877 126.942123,48.9607877 M128.054795,75.2842466 C117.611301,75.2842466 113.892637,67.6224315 113.892637,60.455137 C113.892637,55.4481164 115.939041,51.5342466 119.976541,48.817637 C122.804445,47.0669452 126.050432,46.1074183 129.375685,46.0392123 C137.343322,46.0392123 142.909932,51.7684932 142.909932,59.9768836 C142.909932,65.5532534 140.687842,69.9583904 136.481164,72.7107877 C134.460788,73.947089 130.950342,75.2842466 128.054795,75.2842466" id="Shape" fill="#FFFFFF"></path>
                    <path d="M233.270548,48.9607877 C232.093979,48.9341183 230.936227,49.2592403 229.945548,49.8945205 C227.531507,51.3618151 226.301712,54.2931507 226.301712,58.6006849 C226.301712,66.6626712 230.339212,72.2943493 236.120548,72.2943493 C237.67513,72.3468021 239.192344,71.8112464 240.369521,70.7945205 C242.14589,69.3467466 243.08613,66.3861301 243.08613,62.2412671 C243.08613,54.2996575 239.142979,48.9607877 233.270548,48.9607877 M234.383219,75.2842466 C223.939726,75.2842466 220.221062,67.6224315 220.221062,60.4583904 C220.221062,55.444863 222.267466,51.5342466 226.308219,48.817637 C229.134454,47.0658877 232.379695,46.1062491 235.70411,46.0392123 C243.671747,46.0392123 249.238356,51.7717466 249.238356,59.9736301 C249.238356,65.5565068 247.016267,69.9583904 242.809589,72.7075342 C240.789212,73.947089 237.278767,75.2842466 234.383219,75.2842466" id="Shape" fill="#FFFFFF"></path>
                    <path d="M198.107534,48.6875 C194.889897,48.6875 192.807705,51.2284247 192.807705,55.1618151 C192.807705,59.0952055 194.600342,63.7703767 199.639897,63.7703767 C200.505308,63.7703767 202.073459,63.3864726 202.851027,62.5308219 C204.02226,61.4539384 204.803082,59.2285959 204.803082,56.8796233 C204.803082,51.7489726 202.304452,48.6875 198.123801,48.6875 M197.707363,75.8340753 C196.798336,75.8241562 195.902038,76.0482305 195.104623,76.4847603 C192.557192,78.1114726 191.376199,79.7381849 191.376199,81.6284247 C191.376199,83.3982877 192.062671,84.8070205 193.539726,86.0563356 C195.32911,87.5724315 197.743151,88.3109589 200.91524,88.3109589 C207.158562,88.3109589 209.956507,84.9534247 209.956507,81.6284247 C209.956507,79.3119863 208.795034,77.7601027 206.403767,76.8816781 C204.562329,76.2082192 201.484589,75.8373288 197.717123,75.8373288 M198.133562,91.7791096 C194.385616,91.7791096 191.685274,90.9885274 189.378596,89.2121575 C187.133733,87.4813356 186.125171,84.9111301 186.125171,83.1347603 C186.149459,81.9900153 186.586152,80.8925088 187.354966,80.0440068 C188.005651,79.302226 189.518493,77.9130137 193.015925,75.5087329 C193.126763,75.4616044 193.198556,75.3526326 193.198116,75.2321918 C193.200414,75.0967595 193.108515,74.9778314 192.976884,74.9458904 C190.097603,73.8429795 189.228938,72.0178082 188.965411,71.0417808 C188.965411,71.0059932 188.965411,70.9506849 188.93613,70.8888699 C188.854795,70.5049658 188.776712,70.1405822 189.300514,69.7664384 C189.703938,69.480137 190.348116,69.0962329 191.037842,68.6895548 C192.011487,68.1505923 192.945423,67.5428268 193.832534,66.8708904 C193.92918,66.7670354 193.972336,66.6243079 193.949426,66.4843031 C193.926516,66.3442984 193.840118,66.2227707 193.715411,66.155137 C189.453425,64.7236301 187.306164,61.5580479 187.306164,56.7202055 C187.279618,53.6584687 188.749142,50.7765011 191.242808,48.9998288 C192.957363,47.6431507 197.261644,46.0131849 200.049829,46.0131849 L200.2125,46.0131849 C203.078767,46.0815068 204.695719,46.6833904 206.934075,47.5097603 C208.207341,47.9701544 209.556511,48.1843434 210.90976,48.1409247 C213.281507,48.1409247 214.319349,47.3893836 215.210788,46.5142123 C215.355346,46.9084126 215.43234,47.3241824 215.438527,47.7440068 C215.492988,48.744339 215.221267,49.7353207 214.664212,50.5679795 C214.179452,51.2414384 213.0375,51.7294521 211.993151,51.7294521 C211.885788,51.7294521 211.781678,51.7294521 211.667808,51.7131849 C211.11829,51.6744944 210.573642,51.584083 210.041096,51.4431507 L209.774315,51.5375 C209.689726,51.6611301 209.745034,51.797774 209.813356,51.9734589 C209.830041,52.007803 209.843124,52.0437826 209.852397,52.0808219 C210.042813,52.9491311 210.172182,53.8297101 210.239555,54.7160959 C210.239555,59.7751712 208.245205,61.9777397 206.088185,63.6109589 C204.002738,65.1757299 201.52605,66.1348836 198.930651,66.3828767 L198.930651,66.3828767 C198.875342,66.3828767 198.605308,66.4056507 198.097774,66.4511986 C197.772432,66.4804795 197.349486,66.5195205 197.287671,66.5195205 L197.225856,66.5195205 C196.757363,66.6496575 195.534075,67.2320205 195.534075,68.315411 C195.534075,69.2133562 196.087158,70.3292808 198.732192,70.5309932 L200.443493,70.6513699 C203.931164,70.8953767 208.2875,71.1979452 210.337158,71.8909247 C213.125847,72.8715321 214.971224,75.5300813 214.914726,78.4856164 C214.914726,83.0241438 211.687329,87.292637 206.28339,89.9018836 C203.735009,91.1191073 200.944684,91.7452345 198.120548,91.7335616" id="Shape" fill="#FFFFFF"></path>
                    <path d="M182.146233,73.105831 C180.617123,72.8941684 179.501199,72.6791461 178.183562,72.0407984 C177.924991,71.7642058 177.754679,71.4124517 177.695548,71.0328811 C177.555651,68.8322617 177.555651,62.4454258 177.555651,58.2659288 C177.555651,54.8558086 177.002568,51.8824526 175.603596,49.7490276 C173.934589,47.3333859 171.572603,45.9155822 168.514384,45.9155822 C165.804281,45.9155822 162.189726,47.830625 159.203082,50.4579295 C159.131507,50.5284837 158.672774,50.9786867 158.682534,50.2798641 C158.692295,49.5810414 158.796404,48.1632378 158.861473,47.2561122 C158.920072,46.7674046 158.751128,46.278906 158.405993,45.9391003 C156.453938,46.9470176 150.978425,48.2909073 148.951541,48.4958505 C147.474486,48.7915062 147.100342,50.2597057 148.678253,50.7670241 L148.701027,50.7670241 C149.964095,51.1266944 151.169679,51.6744833 152.279795,52.3931307 C152.904452,52.8903699 152.83613,53.5992717 152.83613,54.1670651 C152.904452,58.921075 152.904452,66.2318351 152.696233,70.206389 C152.627911,71.7686608 152.208219,72.3364542 151.095548,72.6220307 L151.199658,72.5850738 C150.352351,72.8043484 149.492957,72.9703991 148.626199,73.082313 C148.278082,73.435084 148.278082,75.494595 148.626199,75.92128 C149.322432,75.92128 152.855651,75.7096174 155.783733,75.7096174 C159.811473,75.7096174 161.896918,75.92128 162.941267,75.92128 C163.360959,75.4240408 163.497603,73.508998 163.221062,73.082313 C162.2587,73.0373708 161.302982,72.8944497 160.367808,72.655628 C159.25839,72.3734111 158.978596,71.802258 158.910274,70.5289225 C158.77363,67.1893565 158.77363,60.0936188 158.77363,55.2656949 C158.77363,53.9218052 159.118493,53.2800979 159.534932,52.9138879 C160.924144,51.6371927 163.221062,50.7871824 165.234932,50.7871824 C167.186986,50.7871824 168.488356,51.4255301 169.464384,52.2755403 C170.601221,53.2999247 171.313935,54.7358482 171.455479,56.2870511 C171.732021,58.9748306 171.660445,64.380627 171.660445,69.0540035 C171.660445,71.6107537 171.455479,72.2524611 170.551027,72.5346779 C170.134589,72.7463405 169.021918,72.9613629 167.701027,73.1024713 C167.284589,73.5291563 167.421233,75.5147534 167.701027,75.9414384 C169.506678,75.9414384 171.605137,75.7297757 174.650342,75.7297757 C178.473116,75.7297757 180.906678,75.9414384 181.879452,75.9414384 C182.29589,75.4441992 182.435788,73.5896313 182.159247,73.1024713" id="Path" fill="#FFFFFF"></path>
                </g>
            </g>
        </g>
    </g>
</svg>