<?xml version="1.0" encoding="UTF-8"?>
<svg width="400px" height="400px" viewBox="0 0 400 400" version="1.1" xmlns="http://www.w3.org/2000/svg" xmlns:xlink="http://www.w3.org/1999/xlink">
    <!-- Generator: Sketch 63.1 (92452) - https://sketch.com -->
    <title>node js</title>
    <desc>Created with Sketch.</desc>
    <g id="Page-1" stroke="none" stroke-width="1" fill="none" fill-rule="evenodd">
        <g id="Desktop-HD" transform="translate(-200.000000, -200.000000)">
            <g id="node-js" transform="translate(200.000000, 200.000000)">
                <rect id="Rectangle" stroke="#83CD29" stroke-width="15" fill="#000000" x="7.5" y="7.5" width="385" height="385" rx="50"></rect>
                <g transform="translate(67.000000, 50.000000)" fill="#83CD29" fill-rule="nonzero" id="Shape">
                    <path d="M254.411651,66.6591484 L145.248652,3.27346243 C138.364231,-0.64776103 129.400374,-0.64776103 122.461492,3.27346243 L12.1325228,66.6591484 C5.02778083,70.7462317 0,78.4277698 0,86.6440202 L0,213.247057 C0,221.463307 5.15898339,229.147321 12.2637254,233.256684 L41.4129717,249.812961 C55.3451975,256.675102 60.2690065,256.675102 66.6088129,256.675102 C87.2373198,256.675102 99.0207944,244.200957 99.0207944,222.443613 L99.0207944,97.4546155 C99.0207944,95.6895698 98.1023765,93.0630432 96.3695126,93.0630432 L82.4496644,93.0630432 C80.6870943,93.0630432 76.7411156,95.6895698 76.7411156,97.4521399 L76.7411156,222.441138 C76.7411156,232.085763 68.0173837,241.683354 51.7136099,233.531467 L21.5939597,216.170646 C20.5443393,215.601276 19.8041589,214.455111 19.8041589,213.247057 L19.8041589,86.6440202 C19.8041589,85.4508197 21.1780724,84.2526681 22.2351194,83.6412147 L132.207614,20.3644515 C133.234954,19.7827044 134.745021,19.7827044 135.769887,20.3644515 L244.400649,83.6263615 C245.440367,84.2526681 245.073991,85.4136869 245.073991,86.6440202 L245.073991,213.247057 C245.073991,214.455111 245.527011,215.630983 244.49967,216.21273 L135.363901,279.526626 C134.428155,280.088569 133.267136,280.088569 132.242271,279.526626 L104.251568,262.819342 C103.407416,262.329189 102.40483,262.153427 101.595335,262.606447 C93.8073495,267.020299 92.371548,267.606997 85.0662889,270.139454 C83.2690615,270.765761 80.6177797,271.852514 86.0812521,274.914732 L122.713995,296.585433 C126.221807,298.615359 130.207394,299.669931 134.217736,299.669931 C138.282539,299.669931 142.263175,298.615359 145.770987,296.585433 L254.409176,233.256684 C261.513918,229.117615 264.880625,221.463307 264.880625,213.247057 L264.880625,86.6440202 C264.880625,78.4277698 261.513918,70.7660359 254.411651,66.6591484 L254.411651,66.6591484 Z M168.112554,193.185444 C139.084608,193.185444 132.69034,185.177137 130.558917,170.742381 C130.311365,169.187754 128.991913,167.328639 127.410056,167.328639 L113.222852,167.328639 C111.467708,167.328639 110.056662,169.457586 110.056662,171.205303 C110.056662,189.687534 120.104797,212.081087 168.115029,212.081087 C202.868852,212.081087 222.794312,198.577126 222.794312,174.678457 C222.794312,150.982781 206.785125,144.764275 173.080922,140.303389 C139.012818,135.800418 135.552041,133.525415 135.552041,125.544339 C135.552041,118.964408 138.483056,110.18869 163.708604,110.18869 C186.248212,110.18869 194.556057,115.025855 197.97475,130.218121 C198.266861,131.646496 199.57146,132.671361 201.044394,132.671361 L215.288536,132.671361 C216.16487,132.671361 217.001595,132.317362 217.615524,131.691055 C218.209649,131.017714 218.52404,130.173561 218.444823,129.267521 C216.239135,103.106227 198.85851,90.914292 163.706128,90.914292 C132.437837,90.914292 113.784795,104.118715 113.784795,126.252338 C113.784795,150.25993 132.343767,156.894323 162.359445,159.862471 C198.266861,163.38266 201.059247,168.630762 201.059247,175.693421 C201.059247,187.959622 191.211629,193.185444 168.112554,193.185444 Z"></path>
                </g>
            </g>
        </g>
    </g>
</svg>