<?xml version="1.0" encoding="UTF-8"?>
<svg width="400px" height="400px" viewBox="0 0 400 400" version="1.1" xmlns="http://www.w3.org/2000/svg" xmlns:xlink="http://www.w3.org/1999/xlink">
    <!-- Generator: Sketch 63.1 (92452) - https://sketch.com -->
    <title>react</title>
    <desc>Created with Sketch.</desc>
    <g id="Page-1" stroke="none" stroke-width="1" fill="none" fill-rule="evenodd">
        <g id="Desktop-HD" transform="translate(-200.000000, -200.000000)">
            <g id="react" transform="translate(200.000000, 200.000000)">
                <rect id="Rectangle" stroke="#61DAFB" stroke-width="15" fill="#000000" x="7.5" y="7.5" width="385" height="385" rx="50"></rect>
                <g id="React-icon" transform="translate(59.000000, 75.000000)" fill="#61DAFB" fill-rule="nonzero">
                    <path d="M281.064073,125 C281.064073,106.407323 257.78032,88.7871854 222.08238,77.8604119 C230.320366,41.4759725 226.659039,12.5286041 210.526316,3.26086957 C206.80778,1.08695652 202.459954,0.057208238 197.71167,0.057208238 L197.71167,12.8146453 C200.343249,12.8146453 202.459954,13.3295195 204.23341,14.3020595 C212.01373,18.7643021 215.389016,35.7551487 212.757437,57.6086957 C212.128146,62.98627 211.098398,68.6498856 209.839817,74.4279176 C198.627002,71.6819222 186.384439,69.5652174 173.512586,68.1922197 C165.789474,57.6086957 157.78032,47.9977117 149.713959,39.5881007 C168.363844,22.2540046 185.869565,12.7574371 197.768879,12.7574371 L197.768879,0 C197.768879,0 197.768879,0 197.768879,0 C182.036613,0 161.441648,11.2128146 140.617849,30.6636156 C119.79405,11.3272311 99.1990847,0.228832952 83.4668192,0.228832952 L83.4668192,12.98627 C95.3089245,12.98627 112.871854,22.4256293 131.521739,39.6453089 C123.512586,48.0549199 115.503432,57.6086957 107.894737,68.1922197 C94.9656751,69.5652174 82.7231121,71.6819222 71.5102975,74.4851259 C70.194508,68.7643021 69.221968,63.215103 68.5354691,57.8947368 C65.8466819,36.0411899 69.1647597,19.0503432 76.8878719,14.5308924 C78.604119,13.5011442 80.8352403,13.0434783 83.4668192,13.0434783 L83.4668192,0.28604119 C83.4668192,0.28604119 83.4668192,0.28604119 83.4668192,0.28604119 C78.6613272,0.28604119 74.3135011,1.31578947 70.5377574,3.48970252 C54.4622426,12.7574371 50.8581236,41.6475973 59.1533181,77.9176201 C23.5697941,88.9016018 0.400457666,106.464531 0.400457666,125 C0.400457666,143.592677 23.6842105,161.212815 59.382151,172.139588 C51.1441648,208.524027 54.805492,237.471396 70.9382151,246.73913 C74.6567506,248.913043 79.0045767,249.942792 83.8100686,249.942792 C99.5423341,249.942792 120.1373,238.729977 140.961098,219.279176 C161.784897,238.615561 182.379863,249.713959 198.112128,249.713959 C202.91762,249.713959 207.265446,248.684211 211.04119,246.510297 C227.116705,237.242563 230.720824,208.352403 222.425629,172.08238 C257.894737,161.155606 281.064073,143.535469 281.064073,125 Z M206.578947,86.8421053 C204.462243,94.221968 201.830664,101.830664 198.855835,109.439359 C196.510297,104.8627 194.050343,100.286041 191.361556,95.7093822 C188.729977,91.1327231 185.926773,86.6704805 183.12357,82.3226545 C191.24714,83.5240275 199.084668,85.0114416 206.578947,86.8421053 Z M180.377574,147.768879 C175.915332,155.491991 171.338673,162.814645 166.590389,169.622426 C158.066362,170.366133 149.427918,170.76659 140.732265,170.76659 C132.093822,170.76659 123.455378,170.366133 114.988558,169.679634 C110.240275,162.871854 105.606407,155.606407 101.144165,147.940503 C96.7963387,140.446224 92.8489703,132.837529 89.2448513,125.171625 C92.791762,117.505721 96.7963387,109.839817 101.086957,102.345538 C105.549199,94.6224256 110.125858,87.2997712 114.874142,80.4919908 C123.398169,79.7482838 132.036613,79.3478261 140.732265,79.3478261 C149.370709,79.3478261 158.009153,79.7482838 166.475973,80.4347826 C171.224256,87.2425629 175.858124,94.5080092 180.320366,102.173913 C184.668192,109.668192 188.615561,117.276888 192.21968,124.942792 C188.615561,132.608696 184.668192,140.2746 180.377574,147.768879 Z M198.855835,140.331808 C201.94508,147.997712 204.576659,155.663616 206.750572,163.100686 C199.256293,164.93135 191.361556,166.475973 183.180778,167.677346 C185.983982,163.272311 188.787185,158.75286 191.418764,154.118993 C194.050343,149.542334 196.510297,144.908467 198.855835,140.331808 Z M140.846682,201.372998 C135.526316,195.881007 130.20595,189.759725 124.942792,183.066362 C130.091533,183.295195 135.354691,183.466819 140.675057,183.466819 C146.052632,183.466819 151.372998,183.352403 156.578947,183.066362 C151.430206,189.759725 146.10984,195.881007 140.846682,201.372998 Z M98.2837529,167.677346 C90.1601831,166.475973 82.3226545,164.988558 74.8283753,163.157895 C76.9450801,155.778032 79.576659,148.169336 82.5514874,140.560641 C84.8970252,145.1373 87.3569794,149.713959 90.0457666,154.290618 C92.7345538,158.867277 95.4805492,163.329519 98.2837529,167.677346 Z M140.560641,48.6270023 C145.881007,54.1189931 151.201373,60.2402746 156.464531,66.9336384 C151.315789,66.7048055 146.052632,66.5331808 140.732265,66.5331808 C135.354691,66.5331808 130.034325,66.6475973 124.828375,66.9336384 C129.977117,60.2402746 135.297483,54.1189931 140.560641,48.6270023 Z M98.2265446,82.3226545 C95.423341,86.7276888 92.6201373,91.2471396 89.9885584,95.8810069 C87.3569794,100.457666 84.8970252,105.034325 82.5514874,109.610984 C79.4622426,101.94508 76.8306636,94.2791762 74.6567506,86.8421053 C82.1510297,85.0686499 90.0457666,83.5240275 98.2265446,82.3226545 Z M46.4530892,153.947368 C26.201373,145.308924 13.1006865,133.981693 13.1006865,125 C13.1006865,116.018307 26.201373,104.633867 46.4530892,96.0526316 C51.3729977,93.9359268 56.7505721,92.0480549 62.2997712,90.2745995 C65.5606407,101.487414 69.8512586,113.157895 75.1716247,125.114416 C69.9084668,137.01373 65.6750572,148.627002 62.4713959,159.782609 C56.8077803,158.009153 51.4302059,156.064073 46.4530892,153.947368 Z M77.2311213,235.697941 C69.4508009,231.235698 66.0755149,214.244851 68.7070938,192.391304 C69.3363844,187.01373 70.3661327,181.350114 71.624714,175.572082 C82.8375286,178.318078 95.0800915,180.434783 107.951945,181.80778 C115.675057,192.391304 123.684211,202.002288 131.750572,210.411899 C113.100686,227.745995 95.5949657,237.242563 83.6956522,237.242563 C81.1212815,237.185355 78.9473684,236.670481 77.2311213,235.697941 Z M212.929062,192.105263 C215.617849,213.95881 212.299771,230.949657 204.576659,235.469108 C202.860412,236.498856 200.629291,236.956522 197.997712,236.956522 C186.155606,236.956522 168.592677,227.517162 149.942792,210.297483 C157.951945,201.887872 165.961098,192.334096 173.569794,181.750572 C186.498856,180.377574 198.741419,178.26087 209.954233,175.457666 C211.270023,181.235698 212.299771,186.784897 212.929062,192.105263 Z M234.954233,153.947368 C230.034325,156.064073 224.656751,157.951945 219.107551,159.7254 C215.846682,148.512586 211.556064,136.842105 206.235698,124.885584 C211.498856,112.98627 215.732265,101.372998 218.935927,90.2173913 C224.599542,91.9908467 229.977117,93.9359268 235.011442,96.0526316 C255.263158,104.691076 268.363844,116.018307 268.363844,125 C268.306636,133.981693 255.20595,145.366133 234.954233,153.947368 Z" id="Shape"></path>
                    <circle id="Oval" cx="140.675057" cy="125" r="26.1441648"></circle>
                </g>
            </g>
        </g>
    </g>
</svg>