<?xml version="1.0" encoding="UTF-8"?>
<svg width="887px" height="800px" viewBox="0 0 887 800" version="1.1" xmlns="http://www.w3.org/2000/svg" xmlns:xlink="http://www.w3.org/1999/xlink">
    <!-- Generator: Sketch 63.1 (92452) - https://sketch.com -->
    <title>skills</title>
    <desc>Created with Sketch.</desc>
    <defs>
        <path d="M25.6078034,590.042566 C149.751293,787.661485 569.007724,900.262219 742.5844,677.685198 C916.161076,455.108178 914.138972,295.542354 833.258711,78.8303371 C752.378449,-137.88168 606.219852,147.601097 433.041414,273.022964 C259.862975,398.444832 -98.5356865,392.423647 25.6078034,590.042566 Z" id="path-1"></path>
        <linearGradient x1="50%" y1="0%" x2="50%" y2="79.9514358%" id="linearGradient-3">
            <stop stop-color="#F0EDED" offset="0%"></stop>
            <stop stop-color="#FFFFFF" offset="100%"></stop>
        </linearGradient>
    </defs>
    <g id="Page-1" stroke="none" stroke-width="1" fill="none" fill-rule="evenodd">
        <g id="skills-image" transform="translate(-277.000000, -112.000000)">
            <g id="skills" transform="translate(277.000000, 112.000000)">
                <g id="Group">
                    <mask id="mask-2" fill="white">
                        <use xlink:href="#path-1"></use>
                    </mask>
                    <use id="Mask" fill="#E1F9F5" xlink:href="#path-1"></use>
                    <path d="M650,316.622667 C652.818535,316.947777 652.830718,316.649787 654.610207,317.764332 C657.585974,319.628142 653.037068,316.944062 654.893848,318.473795 C657.135768,320.320831 659.330352,322.303297 661.746638,323.765055 C667.518622,327.256879 673.447181,330.33933 679.404612,333.301846 C680.225718,333.710167 681.16556,333.559015 682.018725,333.845977 C685.063878,334.870213 682.972435,334.980916 686.07117,335.368867 C686.743166,335.452998 687.432129,335.221192 688.096997,335.369952 C700.141273,338.064777 691.623705,339.056867 710.652482,337.289649 C712.401408,337.127225 713.970278,335.849211 715.673107,335.325613 C716.740949,334.997265 717.870317,335.065587 718.93902,334.741644 C720.977072,334.123873 722.977121,332.810225 725.015174,332.192454 C726.083877,331.868511 727.218041,331.960291 728.281087,331.608485 C742.439771,326.922785 736.929421,328.380605 747.466687,323.999044 C748.541143,323.552268 749.674504,323.334487 750.732295,322.829356 C751.642427,322.394737 752.423781,321.587234 753.345276,321.191817 C759.445164,318.574332 765.592613,316.443542 771.633928,313.73773 C772.749297,313.238173 773.775585,312.451988 774.899232,311.982322 C777.047025,311.08458 779.291521,310.573189 781.430448,309.642946 C782.350622,309.242752 783.133063,308.439261 784.043428,308.005408 C791.109605,304.637874 804.385713,301.924249 810.719188,301.571416 C820.196118,301.043465 829.693722,301.400878 839.179483,301.58666 C840.515738,301.612832 841.938366,301.522518 843.158494,302.206752 C848.897456,305.425098 856.272666,311.335425 860.776533,317.487864 C864.399972,322.437609 864.504778,328.744308 863.867397,335.200795 C863.722062,336.673006 863.06871,338.01274 862.466037,339.289328 C860.596971,343.2484 858.614182,347.130617 856.47183,350.866153 C847.135492,367.14556 853.415664,355.393683 845.299489,366.900265 C843.817777,369.00094 842.772848,371.572959 841.174028,373.53441 C839.345571,375.77758 828.941381,386.319064 825.357429,388.974941 C823.865558,390.080487 822.173053,390.694877 820.60326,391.616189 C819.260371,392.404331 818.022455,393.491866 816.621571,394.102018 C815.088455,394.769762 813.442648,394.933617 811.866714,395.421368 C807.593552,396.743912 798.135114,399.657097 794.746602,396.760964 C789.517645,392.291816 791.622879,375.188988 792.098827,372.739703 C793.093366,367.621692 796.192523,363.533783 798.413843,359.061986 C803.153141,349.521178 809.359159,341.944492 816.092784,334.616354 C837.004317,311.858542 858.812807,300.95392 885.075417,288" id="Path" stroke="#FFFFFF" stroke-width="20" stroke-linecap="round" mask="url(#mask-2)" transform="translate(767.537709, 343.000000) rotate(1.000000) translate(-767.537709, -343.000000) "></path>
                    <path d="M893.22675,108 C877.52703,112.903167 750.180298,296.92212 709.714833,373.288175 C601.47184,577.563355 621.111122,628.958936 768.632678,527.474915" id="Path" stroke="#FFFFFF" stroke-width="20" stroke-linecap="round" mask="url(#mask-2)" transform="translate(767.113375, 343.000000) rotate(-17.000000) translate(-767.113375, -343.000000) "></path>
                </g>
                <rect id="Rectangle" stroke="#FFFFFF" fill="url(#linearGradient-3)" x="261.5" y="0.5" width="362.106796" height="799" rx="50"></rect>
                <g id="Group-3" transform="translate(277.000000, 89.000000)" fill-rule="nonzero">
                    <g id="undraw_new_ideas_jdea" transform="translate(18.986641, 371.000000)">
                        <path d="M283.135736,79.9733728 C283.135736,90.3786982 280.671219,98.943787 276.396101,106.281065 C274.985098,108.697809 273.38336,110.998019 271.60616,113.159763 C255.890183,132.381657 226.671249,142.902367 200.262964,159.943787 C122.310302,210.245562 113.866515,129.642012 117.387225,79.9733728 C118.807343,59.9319527 126.612077,41.5739645 139.011485,27.5177515 C141.615561,24.5614959 144.428512,21.7960048 147.428645,19.2426036 C161.505568,7.25443787 179.691959,-1.68175795e-14 200.262964,-1.68175795e-14 C235.555864,-1.68175795e-14 265.694917,21.2869822 277.644621,51.2840237 C281.277624,60.4124324 283.14111,70.1485815 283.135736,79.9733728 L283.135736,79.9733728 Z" id="Path" fill="#8CD9DC"></path>
                        <path d="M217.919772,18.0236627 L139.011488,27.5177456 C141.615564,24.56149 144.428514,21.7959989 147.428648,19.2425976 L217.919772,18.0236627 Z" id="Path" fill="#D0CDE1"></path>
                        <path d="M276.396104,106.281059 C274.985101,108.697803 273.383363,110.998013 271.606163,113.159757 L204.014447,105.02958 L276.396104,106.281059 Z" id="Path" fill="#D0CDE1"></path>
                        <path d="M280.401991,59.5325355 L165.848754,44.6745473 L277.644612,51.2840148 C278.718302,53.9794152 279.638894,56.7333078 280.401991,59.5325355 Z" id="Path" fill="#D0CDE1"></path>
                        <path d="M125.157799,21.3024083 C125.157799,21.5065503 125.151882,21.7077337 125.13413,21.9059586 C124.888971,25.2677297 122.631133,28.1456663 119.424322,29.1839214 C116.217512,30.2221764 112.701372,29.2136556 110.532418,26.6334911 C108.363465,24.0533265 107.974326,20.4161675 109.548331,17.4355444 C109.726438,17.094176 109.930178,16.7668072 110.157799,16.4562544 C112.186906,13.6419456 115.755328,12.3909839 119.09752,13.3223063 C122.439713,14.2536287 124.846953,17.1697451 125.128213,20.6278521 C125.148914,20.8497367 125.157799,21.0745917 125.157799,21.3024083 Z" id="Path" fill="#8CD9DC"></path>
                        <path d="M125.157799,21.3024083 C125.157799,21.5065503 125.151882,21.7077337 125.13413,21.9059586 L112.731763,20.4148343 L125.128213,20.6278521 C125.148914,20.8497367 125.157799,21.0745917 125.157799,21.3024083 Z" id="Path" fill="#D0CDE1"></path>
                        <path d="M122.199219,25.4769586 L110.725846,26.8586154 C110.400167,26.4955532 110.10712,26.1044939 109.850107,25.6899763 L122.199219,25.4769586 Z" id="Path" fill="#D0CDE1"></path>
                        <path d="M118.944781,16.3053609 L109.548331,17.4355385 C109.726438,17.0941701 109.930178,16.7668013 110.157799,16.4562485 L118.944781,16.3053609 Z" id="Path" fill="#D0CDE1"></path>
                        <path d="M238.688243,170.452021 C238.592544,170.632343 238.493003,170.807272 238.384396,170.974041 C236.591927,173.828624 233.248436,175.312334 229.929099,174.72617 C226.609761,174.140006 223.976664,171.600886 223.270305,168.305033 C222.563945,165.009181 223.925216,161.613997 226.712799,159.719012 C227.030147,159.500967 227.363576,159.307306 227.710216,159.139692 C230.82184,157.604951 234.560314,158.172737 237.075956,160.562126 C239.591598,162.951514 240.350957,166.655829 238.978325,169.842287 C238.892595,170.048012 238.795036,170.250784 238.688243,170.452021 Z" id="Path" fill="#8CD9DC"></path>
                        <path d="M238.688243,170.452021 C238.592544,170.632343 238.493003,170.807272 238.384396,170.974041 L228.128175,163.843 L238.978334,169.842299 C238.892595,170.048012 238.795036,170.250784 238.688243,170.452021 Z" id="Path" fill="#D0CDE1"></path>
                        <path d="M234.117953,172.752568 L223.335627,168.59458 C223.218148,168.12121 223.142618,167.638407 223.109911,167.151775 L234.117953,172.752568 Z" id="Path" fill="#D0CDE1"></path>
                        <path d="M235.54266,163.125527 L226.712808,159.719018 C227.030156,159.500973 227.363585,159.307312 227.710225,159.139698 L235.54266,163.125527 Z" id="Path" fill="#D0CDE1"></path>
                        <path d="M297.360544,27.6486805 C297.503077,27.7948343 297.639302,27.9429911 297.764982,28.0972899 C299.936673,30.6751604 300.329663,34.3119142 298.758808,37.2942069 C297.187952,40.2764995 293.96658,42.0094693 290.612343,41.6766809 C287.258105,41.3438925 284.440053,39.0117254 283.485825,35.7789083 C283.374988,35.4101681 283.292278,35.0335524 283.238405,34.6523018 C282.726094,31.2208053 284.407315,27.8337619 287.450251,26.1669774 C290.493187,24.500193 294.252573,24.9071151 296.868379,27.1864112 C297.03813,27.3308166 297.201485,27.4855858 297.360544,27.6486805 Z" id="Path" fill="#8CD9DC"></path>
                        <path d="M297.360544,27.6486805 C297.503077,27.7948343 297.639302,27.9429911 297.764982,28.0972899 L287.844997,35.6891183 L296.86837,27.1864112 C297.03813,27.3308166 297.201485,27.4855858 297.360544,27.6486805 Z" id="Path" fill="#D0CDE1"></path>
                        <path d="M298.15716,32.7029349 L290.908,41.7027751 C290.421357,41.6702427 289.938529,41.5948841 289.465118,41.477574 L298.15716,32.7029349 Z" id="Path" fill="#D0CDE1"></path>
                        <path d="M289.423692,28.4092071 L283.485822,35.7789083 C283.374985,35.4101681 283.292275,35.0335524 283.238402,34.6523018 L289.423692,28.4092071 Z" id="Path" fill="#D0CDE1"></path>
                        <path d="M141.946852,180.311595 C141.946852,180.311595 160.126015,181.069062 160.126015,185.613852 C160.126015,190.158642 139.674456,185.613852 139.674456,185.613852 L141.946852,180.311595 Z" id="Path" fill="#A0616A"></path>
                        <path d="M114.678107,249.998391 L80.5921746,247.725994 L79.0772426,229.546828 L71.5025917,245.453598 L38.1741243,240.908805 C38.9315888,212.12513 51.0510473,184.09892 51.808497,180.311592 C52.5659467,176.524263 54.3763166,160.875012 54.3763166,160.875012 C57.6864349,153.85334 75.0323136,153.194349 88.6288669,153.830595 C94.2644556,154.088154 99.2637071,154.572902 102.34655,154.921346 C104.384089,155.148565 105.588524,155.315243 105.588524,155.315243 C111.019491,160.91292 114.519068,168.540553 116.670243,177.062038 C124.426678,207.762127 114.678107,249.998391 114.678107,249.998391 Z" id="Path" fill="#2F2E41"></path>
                        <circle id="Oval" fill="#A0616A" cx="76.8048462" cy="55.3298432" r="18.9366302"></circle>
                        <path d="M63.9279408,59.8746391 C63.9279408,59.8746391 58.6256893,83.3560562 50.293568,90.1732426 C41.9614467,96.990429 82.864574,90.1732426 82.864574,90.1732426 C82.864574,90.1732426 73.7749941,75.0239379 80.5921805,68.2067515 C87.4093669,61.3895651 63.9279408,59.8746391 63.9279408,59.8746391 Z" id="Path" fill="#A0616A"></path>
                        <path d="M102.558663,156.830175 L89.9922574,158.223885 L54.838358,162.132432 C54.838358,162.132432 54.6717367,161.685506 54.3763166,160.875015 C51.8236538,153.913908 39.5300178,120.040104 38.1741243,109.867322 C36.6591953,98.5053432 52.5659615,84.8709704 52.5659615,84.8709704 C52.5659615,84.8709704 67.7152663,81.8411095 72.2600444,81.8411095 C76.8048225,81.8411095 94.9840089,88.6582959 94.9840089,88.6582959 L101.763299,149.641825 L102.346562,154.921334 L102.558663,156.830175 Z" id="Path" fill="#D0CDE1"></path>
                        <path d="M116.670243,177.062041 L91.1966953,162.132432 C91.1966953,162.132432 90.7497249,160.678065 89.9922574,158.223885 C89.6135266,156.996796 89.1515769,155.512195 88.6288757,153.830598 C85.6899083,144.392565 80.7588018,128.819083 76.804858,117.441988 C70.7451361,100.02029 100.286275,148.498059 100.286275,148.498059 L101.763296,149.641846 L102.346559,154.921355 C104.384098,155.148574 105.588533,155.315251 105.588533,155.315251 C111.019491,160.912923 114.519068,168.540556 116.670243,177.062041 Z" id="Path" fill="#000000" opacity="0.15"></path>
                        <path d="M82.864568,90.1732426 C82.864568,90.1732426 75.2899172,100.020284 81.3496391,117.441988 C87.4093609,134.863692 95.7414763,162.132432 95.7414763,162.132432 L139.674456,187.886249 L145.734178,180.311595 L104.831059,148.498059 C104.831059,148.498059 103.316127,90.9307071 95.7414763,88.6583107 C88.1668254,86.3859142 82.864568,90.1732426 82.864568,90.1732426 Z" id="Path" fill="#D0CDE1"></path>
                        <path d="M45.3700444,156.451444 C45.3700444,156.451444 55.9745562,178.417932 60.5193462,176.145527 C65.0641361,173.873121 49.1573698,151.149195 49.1573698,151.149195 L45.3700444,156.451444 Z" id="Path" fill="#A0616A"></path>
                        <path d="M44.2338462,96.2329615 L4.08819231,129.561429 C4.08819231,129.561429 -11.0611095,140.165944 16.9651154,147.740595 C44.9913402,155.315246 47.2637071,159.860036 47.2637071,159.860036 C47.2637071,159.860036 50.293568,150.012994 54.0808935,151.52792 L21.5098876,135.621151 L48.0211686,119.714382 L44.2338462,96.2329615 Z" id="Path" fill="#D0CDE1"></path>
                        <path d="M28.0989112,70.872432 C30.2059142,69.8289675 34.858642,67.7230858 38.8217899,65.1859822 C38.5438846,56.9322485 39.5602722,49.4396479 42.5354645,45.4680473 C44.2054704,41.6761775 47.7123669,37.8798521 50.4589556,34.8901627 C57.203926,27.5483373 72.1185947,23.4501982 74.7638728,27.1184349 C94.7713698,27.513432 96.8776834,43.1962663 96.8776834,43.1962663 C96.7736006,49.7559911 89.9559172,49.9635592 83.9836716,49.7245207 C84.5184793,54.2027663 83.0932249,58.8559527 78.9660621,60.9195355 C71.0737544,64.8656893 68.7060385,69.9956923 72.652213,73.5472663 C76.5983876,77.0988402 83.7014734,86.5695976 74.2306834,88.9372692 C64.7598935,91.3049408 63.5760237,96.0403876 66.3383757,98.0134586 C69.1007278,99.9865296 60.0244822,94.4619172 60.0244822,94.4619172 C60.0244822,94.4619172 58.4460444,103.932707 50.1590976,101.565 C49.4164556,101.352808 48.6742101,100.809115 47.9444793,99.9959734 C45.7063787,102.455145 43.7097308,103.909163 42.204932,103.917317 C33.5865118,103.962855 34.6200059,94.4172396 34.6200059,94.4172396 C34.6200059,94.4172396 24.3903935,97.2901657 27.5824024,96.134926 C30.7744112,94.9796864 30.9111509,90.1004675 22.4294734,85.2669527 C13.9477959,80.4334379 23.3413077,73.2284852 28.0989112,70.872432 Z" id="Path" fill="#2F2E41"></path>
                        <path d="M133.84137,95.6156509 L133.703982,95.5975385 L134.039151,96.8716302 C134.355978,98.6491497 134.816058,100.398131 135.414891,102.101467 L145.245172,139.470645 C145.886347,141.907996 147.911557,143.733285 150.402204,144.118595 L170.449456,147.219959 C173.106077,147.630928 175.732723,146.320122 177.001556,143.950186 L196.052994,108.365494 C196.648288,107.379611 197.192243,106.363628 197.682683,105.321607 L198.329509,104.11342 L198.228639,104.100121 C203.764987,91.003436 200.4809,75.8407832 190.021691,66.2085841 C179.562481,56.5763851 164.181219,54.5495582 151.583846,61.1435346 C138.986474,67.737511 131.886653,81.5318506 133.841361,95.6156509 L133.84137,95.6156509 Z" id="Path" fill="#3F3D56"></path>
                        <path d="M171.679743,149.661444 C171.326657,149.661444 170.974095,149.634288 170.625169,149.580254 L149.670249,146.338243 C146.950273,145.917936 144.738556,143.924542 144.038834,141.262716 L133.763559,102.201805 C133.135587,100.413616 132.652962,98.5776604 132.320385,96.7118195 L132.060497,95.0029793 C130.643041,83.9350617 134.510306,72.8445447 142.502406,65.0577409 C150.494506,57.270937 161.681885,53.6935257 172.709178,55.3984586 L172.618456,55.9832396 C161.709662,54.3021741 150.648114,57.8757812 142.784784,65.6214766 C134.921454,73.3671721 131.181535,84.3736028 132.697994,95.3064941 L132.897787,96.5846923 C133.227854,98.4347605 133.706415,100.255235 134.328825,102.028453 L144.611192,141.11218 C145.250904,143.546309 147.2734,145.3692 149.76068,145.753453 L170.715604,148.995464 C173.367989,149.40309 175.989356,148.094896 177.258281,145.730337 L177.78008,146.009438 C176.573758,148.256747 174.230352,149.659642 171.679743,149.661444 L171.679743,149.661444 Z" id="Path" fill="#D0CDE1"></path>
                        <polygon id="Rectangle" fill="#D0CDE1" transform="translate(170.979393, 121.648044) rotate(-69.884990) translate(-170.979393, -121.648044) " points="152.441826 121.265387 189.516959 121.265387 189.516959 122.030701 152.441826 122.030701"></polygon>
                        <polygon id="Rectangle" fill="#D0CDE1" transform="translate(156.608266, 119.424789) rotate(-2.515830) translate(-156.608266, -119.424789) " points="156.225609 100.887222 156.990923 100.887222 156.990923 137.962356 156.225609 137.962356"></polygon>
                        <path d="M169.908254,167.370047 L143.056973,163.21608 C142.641331,163.149302 142.357638,162.759396 142.421998,162.343372 C142.486357,161.927348 142.874606,161.641393 143.290997,161.703331 L170.142278,165.857299 C170.413797,165.897687 170.642894,166.080389 170.742685,166.336114 C170.842476,166.591839 170.797677,166.881423 170.625278,167.09504 C170.45288,167.308657 170.179285,167.413592 169.908254,167.370047 L169.908254,167.370047 Z" id="Path" fill="#3F3D56"></path>
                        <path d="M170.59676,161.667988 L143.745479,157.514021 C143.473961,157.473632 143.244863,157.290931 143.145072,157.035205 C143.045282,156.77948 143.09008,156.489897 143.262479,156.27628 C143.434878,156.062662 143.708472,155.957728 143.979503,156.001272 L170.830787,160.15524 C171.102306,160.195628 171.331403,160.37833 171.431194,160.634055 C171.530985,160.88978 171.486186,161.179363 171.313787,161.392981 C171.141389,161.606598 170.867794,161.711532 170.596763,161.667988 L170.59676,161.667988 Z" id="Path" fill="#3F3D56"></path>
                        <path d="M171.285266,155.965929 L144.433973,151.811962 C144.018331,151.745184 143.734638,151.355278 143.798998,150.939254 C143.863357,150.52323 144.251606,150.237275 144.667997,150.299213 L171.519278,154.45318 C171.934921,154.519958 172.218613,154.909864 172.154254,155.325888 C172.089895,155.741912 171.701646,156.027867 171.285254,155.965929 L171.285266,155.965929 Z" id="Path" fill="#3F3D56"></path>
                        <path d="M155.647982,170.688139 C160.974083,171.512104 165.75097,169.211666 166.317444,165.549973 L147.029905,162.566139 C146.463429,166.227828 150.321879,169.864178 155.647982,170.688139 Z" id="Path" fill="#3F3D56"></path>
                        <path d="M165.299888,96.774997 C164.154219,96.5979467 163.206346,95.6923373 162.68668,95.0853521 C162.516281,94.8863609 162.350438,94.6799408 162.184095,94.473068 C161.578914,93.7197396 161.007524,93.0083225 160.211781,92.6373343 C158.455314,91.8178343 156.385719,92.9624822 154.59384,94.1905414 L154.160926,93.5593491 C156.130973,92.208716 158.428269,90.9610858 160.53542,91.9435562 C161.4925,92.3899882 162.147464,93.205284 162.780704,93.9935828 C162.941947,94.1943728 163.102893,94.3945503 163.267962,94.5876124 C163.808305,95.2185947 164.885959,96.2410917 166.040666,96.0052633 C166.527267,95.8634366 166.979828,95.6238538 167.37068,95.3011627 C167.668455,95.0789565 167.983158,94.8803881 168.311908,94.7072751 C169.675153,94.0535757 171.297662,94.2828845 172.426358,95.2887692 C172.623139,95.4752216 172.809531,95.672341 172.984692,95.8792367 C173.328988,96.2717101 173.654009,96.6421065 174.077139,96.7767692 C174.702686,96.9767692 175.363825,96.619216 176.064376,96.2414675 C176.786861,95.8516036 177.533716,95.4483077 178.380914,95.5477929 C178.408388,95.5510976 178.436172,95.5548284 178.463503,95.5590562 C179.97108,95.792284 180.666118,97.4595385 181.059396,98.7038402 L180.329441,98.934284 C179.795068,97.2429142 179.144287,96.4017929 178.291275,96.3080266 C177.684402,96.236642 177.074115,96.5661509 176.427962,96.9148787 C175.617962,97.3522751 174.779595,97.8043787 173.844796,97.5060414 C173.219107,97.3069527 172.807251,96.8378462 172.409293,96.3841243 C172.25246,96.1984167 172.085703,96.0213231 171.909751,95.8536183 C171.011449,95.0669199 169.732815,94.8861789 168.651657,95.393071 C168.358671,95.5488935 168.078125,95.7270578 167.812512,95.9259822 C167.337562,96.3133102 166.786097,96.5958599 166.194284,96.7551006 C165.899734,96.8151092 165.596814,96.8218479 165.299888,96.774997 L165.299888,96.774997 Z" id="Path" fill="#D0CDE1"></path>
                    </g>
                    <g id="undraw_building_websites_i78t" transform="translate(-0.000000, 0.000000)">
                        <path d="M190.796919,11.8219849 C193.557762,17.6955729 187.707529,19.3592707 181.006024,22.5074383 C174.30452,25.6556059 169.289455,29.0960987 166.528616,23.2225143 C163.767777,17.34893 161.52769,5.69092733 171.008132,1.23729393 C180.815189,-3.36976362 188.03608,5.94839685 190.796919,11.8219849 Z" id="Path" fill="#2F2E41"></path>
                        <circle id="Oval" fill="#FFB8B8" cx="177.817586" cy="14.6226415" r="8.96226415"></circle>
                        <path d="M224.002785,56.403897 C223.685675,55.9882749 223.368562,55.5801414 223.047804,55.183241 C222.633792,54.6665216 222.21723,54.1660278 221.798117,53.6817593 C217.049436,48.1813189 211.998599,44.7178013 206.436826,44.3471113 L206.429365,44.3471113 L206.34722,44.3396226 L195.264476,55.183241 L191.496831,58.8676749 L191.578976,59.0698694 L193.611886,64.1509434 L229.23268,64.1509434 C227.627616,61.477243 225.881846,58.8912328 224.002785,56.403897 L224.002785,56.403897 Z" id="Path" fill="#2F2E41"></path>
                        <path d="M167.87538,18.8679245 L167.87538,18.8679245 L171.097206,17.2766752 L170.648393,12.3916131 L172.802781,16.4343002 L174.342687,15.6737479 L174.080895,12.8241242 L175.337661,15.1823349 L186.77985,9.53110102 L186.77985,9.53110102 C184.541961,4.52560081 178.867117,2.3746092 174.104718,4.72672146 L172.446412,5.54574823 C167.684016,7.89787881 165.637497,13.8624162 167.87538,18.8679245 L167.87538,18.8679245 Z" id="Path" fill="#2F2E41"></path>
                        <path d="M244.713943,186.792453 L51.4872665,186.792453 C48.055402,186.788561 45.2742929,183.996905 45.2704162,180.552026 L45.2704162,64.0058807 C45.273211,61.4821151 47.3106465,59.4368699 49.824877,59.4339623 L246.297499,59.4339623 C248.855227,59.4368803 250.927937,61.5174906 250.930794,64.0849186 L250.930794,180.552026 C250.926915,183.996904 248.145807,186.788559 244.713943,186.792453 L244.713943,186.792453 Z" id="Path" fill="#F2F2F2"></path>
                        <path d="M56.9645442,179.245283 L238.293269,179.245283 C241.625618,179.245283 244.32702,176.551746 244.32702,173.2291 L244.32702,74.884108 C244.32702,71.5614616 241.625618,68.8679245 238.293269,68.8679245 L56.9645442,68.8679245 C53.6321958,68.8679245 50.9307936,71.5614616 50.9307936,74.884108 L50.9307936,173.2291 C50.9307936,176.551746 53.6321958,179.245283 56.9645442,179.245283 Z" id="Path" fill="#FFFFFF"></path>
                        <path d="M249.987397,64.1509434 L44.32702,64.1509434 L44.32702,60.9746565 C44.3319966,57.5191942 47.1232078,54.7198338 50.5664787,54.7169811 L243.747939,54.7169811 C247.191216,54.7198172 249.982437,57.5191873 249.987397,60.9746565 L249.987397,64.1509434 Z" id="Path" fill="#8CD9DC"></path>
                        <circle id="Oval" fill="#FFFFFF" cx="56.1194729" cy="59.9056604" r="1.41509434"></circle>
                        <circle id="Oval" fill="#FFFFFF" cx="61.7798502" cy="59.9056604" r="1.41509434"></circle>
                        <circle id="Oval" fill="#FFFFFF" cx="68.3836238" cy="59.9056604" r="1.41509434"></circle>
                        <path d="M152.977355,159.433962 L136.620081,159.433962 C134.625165,159.431696 133.008531,157.815062 133.006265,155.820146 L133.006265,139.462873 C133.008531,137.467957 134.625165,135.851323 136.620081,135.849057 L152.977355,135.849057 C154.972271,135.851323 156.588905,137.467957 156.591171,139.462873 L156.591171,155.820146 C156.588905,157.815062 154.972271,159.431696 152.977355,159.433962 L152.977355,159.433962 Z M136.620081,136.60986 C135.045132,136.611611 133.768819,137.887923 133.767069,139.462873 L133.767069,155.820146 C133.768821,157.395095 135.045133,158.671406 136.620081,158.673159 L152.977355,158.673159 C154.552304,158.671406 155.828615,157.395095 155.830368,155.820146 L155.830368,139.462873 C155.828617,137.887923 154.552305,136.611611 152.977355,136.60986 L136.620081,136.60986 Z" id="Shape" fill="#CCCCCC"></path>
                        <path d="M149.781018,154.716981 L139.816406,154.716981 C139.181696,154.716308 138.667335,154.216524 138.666643,153.599801 L138.666643,141.683217 C138.667335,141.066495 139.181696,140.566711 139.816406,140.566038 L147.036668,140.566038 C147.298602,140.566251 147.552649,140.653151 147.756956,140.812421 L150.501118,142.955134 C150.773425,143.166613 150.931613,143.487212 150.930784,143.825931 L150.930784,153.599801 C150.930088,154.216524 150.415727,154.716308 149.781018,154.716981 L149.781018,154.716981 Z M139.816406,141.310824 C139.604854,141.311091 139.433426,141.477661 139.433151,141.683217 L139.433151,153.599801 C139.433426,153.805358 139.604854,153.971928 139.816406,153.972195 L149.781018,153.972195 C149.992569,153.971928 150.163998,153.805358 150.164273,153.599801 L150.164273,143.825931 C150.164557,143.713054 150.11185,143.606211 150.021111,143.535729 L147.276577,141.392829 C147.208511,141.339811 147.123897,141.310824 147.03666,141.310824 L139.816406,141.310824 Z" id="Shape" fill="#CCCCCC"></path>
                        <path d="M147.733729,146.226415 L141.863708,146.226415 C141.661087,146.226415 141.496831,146.015229 141.496831,145.754717 C141.496831,145.494205 141.661087,145.283019 141.863708,145.283019 L147.733729,145.283019 C147.936349,145.283019 148.100605,145.494205 148.100605,145.754717 C148.100605,146.015229 147.936349,146.226415 147.733729,146.226415 Z" id="Path" fill="#CCCCCC"></path>
                        <path d="M147.733729,148.113208 L141.863708,148.113208 C141.661087,148.113208 141.496831,147.902021 141.496831,147.641509 C141.496831,147.380998 141.661087,147.169811 141.863708,147.169811 L147.733729,147.169811 C147.936349,147.169811 148.100605,147.380998 148.100605,147.641509 C148.100605,147.902021 147.936349,148.113208 147.733729,148.113208 Z" id="Path" fill="#CCCCCC"></path>
                        <path d="M147.733729,150 L141.863708,150 C141.661087,150 141.496831,149.788814 141.496831,149.528302 C141.496831,149.26779 141.661087,149.056604 141.863708,149.056604 L147.733729,149.056604 C147.936349,149.056604 148.100605,149.26779 148.100605,149.528302 C148.100605,149.788814 147.936349,150 147.733729,150 Z" id="Path" fill="#CCCCCC"></path>
                        <path d="M191.6566,159.433962 L175.299327,159.433962 C173.304411,159.431696 171.687777,157.815062 171.685511,155.820146 L171.685511,139.462873 C171.687777,137.467957 173.304411,135.851323 175.299327,135.849057 L191.6566,135.849057 C193.651516,135.851323 195.26815,137.467957 195.270416,139.462873 L195.270416,155.820146 C195.26815,157.815062 193.651516,159.431696 191.6566,159.433962 L191.6566,159.433962 Z M175.299327,136.60986 C173.724377,136.611611 172.448065,137.887923 172.446314,139.462873 L172.446314,155.820146 C172.448067,157.395095 173.724378,158.671406 175.299327,158.673159 L191.6566,158.673159 C193.231549,158.671406 194.50786,157.395095 194.509613,155.820146 L194.509613,139.462873 C194.507862,137.887923 193.23155,136.611611 191.6566,136.60986 L175.299327,136.60986 Z" id="Shape" fill="#CCCCCC"></path>
                        <path d="M188.527908,151.886792 L178.428019,151.886792 C177.830645,151.886095 177.34654,151.368137 177.345888,150.728988 L177.345888,144.554031 C177.34654,143.914882 177.830645,143.396924 178.428019,143.396226 L188.527908,143.396226 C189.125282,143.396924 189.609387,143.914882 189.610039,144.554031 L189.610039,150.728988 C189.609387,151.368137 189.125282,151.886095 188.527908,151.886792 Z M178.428019,144.168096 C178.228887,144.168309 178.067507,144.340973 178.067309,144.554031 L178.067309,150.728988 C178.067507,150.942046 178.228887,151.11471 178.428019,151.114923 L188.527908,151.114923 C188.72704,151.11471 188.888419,150.942046 188.888618,150.728988 L188.888618,144.554031 C188.888419,144.340973 188.72704,144.168309 188.527908,144.168096 L178.428019,144.168096 Z" id="Shape" fill="#CCCCCC"></path>
                        <path d="M183.477963,149.056604 C183.275282,149.056924 183.076585,148.993361 182.904449,148.873136 L177.514881,145.088462 C177.346347,144.969551 177.295313,144.719777 177.400812,144.530179 C177.506311,144.340581 177.728509,144.282749 177.897457,144.400915 L183.287025,148.185589 C183.4041,148.26713 183.552177,148.26713 183.669251,148.185589 L189.058469,144.400915 C189.227418,144.282749 189.449616,144.340581 189.555115,144.530179 C189.660614,144.719777 189.609579,144.969551 189.441046,145.088462 L184.051831,148.873136 C183.879587,148.993415 183.680762,149.05698 183.477963,149.056604 Z" id="Path" fill="#CCCCCC"></path>
                        <path d="M114.298109,159.433962 L97.9408362,159.433962 C95.9459201,159.431696 94.3292862,157.815062 94.32702,155.820146 L94.32702,139.462873 C94.3292862,137.467957 95.9459201,135.851323 97.9408362,135.849057 L114.298109,135.849057 C116.293026,135.851323 117.90966,137.467957 117.911926,139.462873 L117.911926,155.820146 C117.90966,157.815062 116.293026,159.431696 114.298109,159.433962 L114.298109,159.433962 Z M97.9408362,136.60986 C96.3658864,136.611611 95.089574,137.887923 95.0878234,139.462873 L95.0878234,155.820146 C95.089576,157.395095 96.3658873,158.671406 97.9408362,158.673159 L114.298109,158.673159 C115.873058,158.671406 117.14937,157.395095 117.151122,155.820146 L117.151122,139.462873 C117.149372,137.887923 115.873059,136.611611 114.298109,136.60986 L97.9408362,136.60986 Z" id="Shape" fill="#CCCCCC"></path>
                        <path d="M111.169417,151.886792 L101.069528,151.886792 C100.472154,151.886095 99.9880494,151.368137 99.9873974,150.728988 L99.9873974,144.554031 C99.9880494,143.914882 100.472154,143.396924 101.069528,143.396226 L111.169417,143.396226 C111.766791,143.396924 112.250896,143.914882 112.251548,144.554031 L112.251548,150.728988 C112.250896,151.368137 111.766791,151.886095 111.169417,151.886792 Z M101.069528,144.168096 C100.870396,144.168309 100.709017,144.340973 100.708818,144.554031 L100.708818,150.728988 C100.709017,150.942046 100.870396,151.11471 101.069528,151.114923 L111.169417,151.114923 C111.36855,151.11471 111.529929,150.942046 111.530128,150.728988 L111.530128,144.554031 C111.529929,144.340973 111.36855,144.168309 111.169417,144.168096 L101.069528,144.168096 Z" id="Shape" fill="#CCCCCC"></path>
                        <path d="M109.582529,151.88679 L101.712977,151.88679 C101.433522,151.886876 101.175264,151.73808 101.035543,151.496483 C100.895822,151.254886 100.895881,150.95722 101.035696,150.715678 L103.406076,146.616784 C103.545808,146.37522 103.804017,146.226415 104.083449,146.226415 C104.36288,146.226415 104.621089,146.37522 104.760821,146.616784 L106.291794,149.263986 L107.178729,147.730332 C107.318461,147.488769 107.57667,147.339964 107.856102,147.339964 C108.135534,147.339964 108.393742,147.488769 108.533474,147.730332 L110.259974,150.715678 C110.399696,150.957262 110.399682,151.25491 110.259937,151.496482 C110.120192,151.738054 109.861951,151.88679 109.582505,151.88679 L109.582529,151.88679 Z M109.582529,151.106049 L109.582529,151.106049 L107.856029,148.120703 L106.630551,150.239913 C106.560692,150.360726 106.431556,150.435137 106.291817,150.435099 L106.291817,150.435099 C106.152078,150.435137 106.022942,150.360726 105.953083,150.239913 L104.083552,147.007155 L101.712988,151.106049 L109.582529,151.106049 Z" id="Shape" fill="#CCCCCC"></path>
                        <circle id="Oval" fill="#CCCCCC" cx="110.364756" cy="146.226415" r="1"></circle>
                        <polygon id="Path" fill="#FFB8B8" points="290.552705 245.283019 286.078169 245.28264 283.949662 227.358491 290.553435 227.35887"></polygon>
                        <path d="M292.439937,249.056604 L277.345888,249.056084 L277.345888,248.877946 C277.345888,247.424084 277.964845,246.029764 279.066639,245.001736 C280.168433,243.973708 281.662788,243.396226 283.220948,243.396226 L283.22133,243.396226 L292.440228,243.396583 L292.439937,249.056604 Z" id="Path" fill="#2F2E41"></path>
                        <polygon id="Path" fill="#FFB8B8" points="310.364026 245.283019 305.889489 245.28264 303.760982 227.358491 310.364756 227.35887"></polygon>
                        <path d="M311.307862,249.056604 L296.213812,249.056084 L296.213812,248.877946 C296.213812,247.424084 296.832769,246.029764 297.934563,245.001736 C299.036357,243.973708 300.530713,243.396226 302.088873,243.396226 L302.089255,243.396226 L311.308152,243.396583 L311.307862,249.056604 Z" id="Path" fill="#2F2E41"></path>
                        <path d="M309.086221,236.718159 L305.002278,235.410814 C304.379921,235.212349 303.931231,234.640675 303.863625,233.96006 L300.056111,195.987539 C300.049951,195.892275 299.974741,195.8183 299.884003,195.818256 C299.793057,195.809089 299.711684,195.877723 299.700388,195.973126 L293.322964,232.762122 C293.244727,233.213056 292.997078,233.611775 292.635988,233.868166 C292.274899,234.124557 291.830848,234.216978 291.404194,234.12454 L286.184771,232.993133 C285.393411,232.818889 284.844296,232.05873 284.896485,231.209716 L288.77574,170.911425 L315.081737,167.924528 L311.172802,235.192368 C311.120241,236.089853 310.414366,236.790109 309.559879,236.792453 C309.399376,236.792453 309.239764,236.767359 309.086221,236.718159 Z" id="Path" fill="#2F2E41"></path>
                        <circle id="Oval" fill="#FFB8B8" cx="308.949662" cy="108.962264" r="8.96226415"></circle>
                        <path d="M287.723246,171.811075 L293.633549,133.837018 C294.26934,129.752641 296.595649,126.14447 300.019695,123.931925 C303.443741,121.71938 307.634849,121.116135 311.525059,122.275907 L311.525059,122.275907 C318.492259,124.332117 322.78531,131.456587 321.439231,138.728827 L315.255771,172.641509 L287.723246,171.811075 Z" id="Path" fill="#8CD9DC"></path>
                        <path d="M310.400706,178.616952 C311.299691,178.014409 311.889574,177.038629 312.01163,175.952172 C312.133687,174.865714 311.775379,173.780182 311.033118,172.987665 L316.968529,161.320755 L310.284261,162.044802 L305.672664,173.012894 C304.416085,174.397261 304.378177,176.516831 305.584425,177.946581 C306.790674,179.376331 308.859803,179.664337 310.400698,178.616966 L310.400706,178.616952 Z" id="Path" fill="#FFB8B8"></path>
                        <path d="M313.201224,170.737673 C312.863213,170.688521 312.547773,170.534397 312.296955,170.295847 L309.959144,168.070412 C309.441813,167.575598 309.27933,166.800701 309.552277,166.130018 L314.224537,154.720639 L313.561721,132.176962 C313.820962,130.205376 315.082099,128.526316 316.86956,127.772954 C318.657021,127.019592 320.698896,127.30653 322.225196,128.525564 C323.751496,129.744598 324.53004,131.710287 324.267241,133.681374 L325.400512,147.852708 C325.745068,152.153742 324.561424,156.437296 322.069756,159.906561 L314.783407,170.054443 C314.49987,170.448889 314.067006,170.700651 313.592697,170.746983 C313.462306,170.759802 313.330902,170.756677 313.201224,170.737673 L313.201224,170.737673 Z" id="Path" fill="#8CD9DC"></path>
                        <path d="M254.774274,104.575413 C254.981937,105.689572 255.675768,106.65514 256.669069,107.2123 C257.66237,107.769459 258.853106,107.860977 259.920871,107.462228 L268.678039,117.924528 L270.742114,111.157917 L262.109715,102.260134 C261.298632,100.483769 259.278151,99.590727 257.406681,100.181418 C255.535211,100.772108 254.404297,102.659822 254.774274,104.575413 L254.774274,104.575413 Z" id="Path" fill="#FFB8B8"></path>
                        <path d="M260.607033,108.747763 C260.78522,108.452307 261.049624,108.217942 261.365001,108.075908 L264.306351,106.752823 C264.959369,106.460937 265.725959,106.605956 266.225941,107.115961 L274.719983,115.818891 L295.415174,123.816188 C297.100175,124.810267 298.123901,126.624392 298.100202,128.574274 C298.076504,130.524157 297.008987,132.313087 295.300318,133.26628 C293.59165,134.219474 291.501836,134.191884 289.819154,133.193919 L276.526507,128.832881 C272.491913,127.50986 269.077342,124.772807 266.917953,121.130854 L260.600786,110.479689 C260.355363,110.065386 260.298305,109.566774 260.443833,109.108124 C260.483764,108.982014 260.538544,108.861052 260.607033,108.747763 L260.607033,108.747763 Z" id="Path" fill="#8CD9DC"></path>
                        <polygon id="Path" fill="#000000" opacity="0.1" points="316.968529 142.45283 316.579941 154.243257 309.42136 166.037736 315.398631 152.89399"></polygon>
                        <path d="M308.091413,111.322779 C306.889143,111.479053 305.756752,110.721521 305.442069,109.550457 C305.143081,108.22244 304.135605,107.167957 302.822789,106.808963 C301.124963,106.420938 299.049877,107.220278 297.805804,105.933657 C297.26546,105.337803 297.044554,104.518408 297.212144,103.73162 C297.441285,102.481342 298.335486,101.536797 299.30857,100.781356 C301.356368,99.1990087 303.83452,98.2726828 306.41796,98.1238873 C307.755216,98.0851708 309.093444,98.151759 310.420255,98.3230353 C311.809513,98.4107277 313.183594,98.661897 314.514061,99.0713451 C317.594488,100.23403 319.868375,102.889079 320.544051,106.112117 C321.159574,109.332048 320.324469,112.659625 318.261533,115.207086 C317.041429,116.726716 315.468202,117.924768 313.679008,118.696792 C313.252819,118.898028 312.764424,118.922805 312.320065,118.765732 C311.205638,118.32255 311.387743,116.9418 311.895866,116.020873 C312.439638,115.035336 313.276342,114.081143 312.839033,112.881743 C312.619854,112.325571 312.199058,111.872515 311.66062,111.612988 C310.552758,111.047894 309.313618,111.181592 308.122615,111.31916 L308.091413,111.322779 Z" id="Path" fill="#2F2E41"></path>
                        <path d="M252.24231,116.037736 L137.355126,116.037736 C133.912882,116.033873 131.123361,113.262696 131.119473,109.843088 L131.119473,85.4399307 C131.123363,82.0203234 133.912883,79.2491479 137.355126,79.245283 L252.24231,79.245283 C255.684526,79.2492139 258.474006,82.0203508 258.477963,85.4399307 L258.477963,109.843088 C258.474006,113.262668 255.684526,116.033805 252.24231,116.037736 Z" id="Path" fill="#FFFFFF"></path>
                        <path d="M252.02491,116.037736 L136.62913,116.037736 C133.066869,116.03381 130.180087,113.20749 130.176077,109.71984 L130.176077,85.563179 C130.180085,82.0755281 133.066869,79.2492072 136.62913,79.245283 L252.02491,79.245283 C255.587171,79.2492072 258.473955,82.0755281 258.477963,85.563179 L258.477963,109.71984 C258.473953,113.20749 255.587171,116.03381 252.02491,116.037736 Z M136.62913,79.9885649 C133.485966,79.9920466 130.938816,82.485848 130.935259,85.563179 L130.935259,109.71984 C130.938816,112.797171 133.485966,115.290972 136.62913,115.294454 L252.02491,115.294454 C255.168074,115.290972 257.715224,112.797171 257.718781,109.71984 L257.718781,85.563179 C257.715224,82.485848 255.168074,79.9920466 252.02491,79.9885649 L136.62913,79.9885649 Z" id="Shape" fill="#3F3D56"></path>
                        <path d="M238.112442,110.377358 L151.484994,110.377358 C148.054385,110.373445 145.274294,107.567272 145.270416,104.104478 L145.270416,91.1785413 C145.274291,87.7157463 148.054384,84.9095719 151.484994,84.9056604 L238.112442,84.9056604 C241.543053,84.9095699 244.323147,87.7157455 244.32702,91.1785413 L244.32702,104.104478 C244.323145,107.567273 241.543052,110.373447 238.112442,110.377358 L238.112442,110.377358 Z" id="Path" fill="#F2F2F2"></path>
                        <circle id="Oval" fill="#FF6584" cx="169.798718" cy="96.2264151" r="7.54716981"></circle>
                        <path d="M232.871054,109.620058 L222.341385,100.736583 L211.993543,92.0064865 C211.429745,91.5308757 210.607471,91.5324809 210.045513,92.0102894 L199.731079,100.780427 L197.211727,102.92272 L193.412947,99.7178672 L181.868374,89.9782959 C181.304656,89.5026731 180.482428,89.5042608 179.920529,89.982057 L168.413425,99.7663086 L156.725235,109.704639 C156.603915,109.807757 156.559611,109.976162 156.614346,110.126147 C156.66908,110.276131 156.811179,110.375704 156.970008,110.37537 L180.933395,110.328925 L188.518602,110.31423 L188.444394,110.377358 L211.0547,110.333534 L232.628875,110.291732 C232.787711,110.291463 232.929437,110.191338 232.983595,110.041135 C233.037752,109.890931 232.992787,109.722693 232.871054,109.620058 L232.871054,109.620058 Z" id="Path" fill="#3F3D56"></path>
                        <path d="M331.683565,250 L258.857267,250 C258.647783,250 258.477963,249.788814 258.477963,249.528302 C258.477963,249.26779 258.647783,249.056604 258.857267,249.056604 L331.683565,249.056604 C331.893049,249.056604 332.062869,249.26779 332.062869,249.528302 C332.062869,249.788814 331.893049,250 331.683565,250 Z" id="Path" fill="#CCCCCC"></path>
                        <path d="M228.604419,49.207473 C228.009214,48.2276924 227.042667,47.5388487 225.931337,47.3024083 C225.7298,47.2594957 225.525151,47.2332613 225.319415,47.2239645 L197.227933,21.7782769 C196.676135,21.2036857 195.940104,20.847387 195.152191,20.7734486 C194.996784,20.7553556 194.840163,20.7503579 194.68394,20.7585069 C193.359534,20.8194799 192.19623,21.6686294 191.719876,22.9221147 C191.243523,24.1756 191.544392,25.595877 192.486483,26.5409386 L203.24146,36.0401141 L220.902197,51.6354967 C220.916738,51.9292224 220.959977,52.220765 221.03128,52.5058497 C221.464087,54.1966766 222.882864,55.4408531 224.596588,55.6323971 C225.360044,55.7227419 226.133177,55.5932797 226.827336,55.258855 C227.377673,54.9980747 227.865707,54.6195856 228.257851,54.149435 C228.29836,54.1008745 228.335278,54.0560494 228.372171,54.0037535 C229.427868,52.6099806 229.520388,50.6992401 228.604412,49.207473 L228.604419,49.207473 Z" id="Path" fill="#FFB8B8"></path>
                        <path d="M180.629647,74.6649697 L180.353885,63.7841415 L180.120808,54.7544867 L179.961507,48.4356135 L179.646882,36.118335 C179.519737,34.7708132 178.583893,33.6237185 177.261774,33.1948309 C175.939655,32.7659433 174.481372,33.1363966 173.545169,34.1389743 C173.437302,34.2510779 173.339826,34.3721934 173.253871,34.5009146 C172.775725,35.1656945 172.56059,35.9755612 172.647949,36.7818921 L173.3394,54.7544867 L173.685128,63.7841415 L174.127764,75.3021353 C174.000077,75.4713772 173.884622,75.6490023 173.782227,75.833735 C173.223965,76.8611458 173.124286,78.0658697 173.506465,79.1666013 C173.905564,80.3219884 174.794778,81.2564536 175.94968,81.7341491 C177.104582,82.2118446 178.414837,82.1871329 179.549752,81.6662511 C180.87327,81.0588094 181.797656,79.8507943 182.014428,78.4453408 C182.231199,77.0398873 181.711814,75.6220442 180.6296,74.6649697 L180.629647,74.6649697 Z" id="Path" fill="#FFB8B8"></path>
                        <path d="M205.22315,43.114645 L202.612377,36.0614643 L198.388082,24.6364163 C197.770664,22.9525104 196.418472,21.6404078 194.713885,21.0711532 C194.647533,21.0490544 194.577396,21.0269557 194.510867,21.0085217 C192.861291,20.5091123 191.075264,20.7539991 189.621976,21.6788501 L175.394345,30.680403 C172.685778,32.390159 171.824792,35.9344599 173.448353,38.6911957 C175.227613,41.7598933 177.166401,44.7337717 179.25679,47.6006706 C180.914845,49.8510588 184.001795,50.0904618 184.537294,53.7735849 L195.027807,53.7735849 L205.647775,44.263761 L205.22315,43.114645 Z" id="Path" fill="#CCCCCC"></path>
                        <circle id="Oval" fill="#A0616A" cx="38.6666427" cy="122.641509" r="8.49056604"></circle>
                        <path d="M60.8034631,118.728268 C60.88767,118.793288 60.9692893,118.86221 61.0483209,118.935033 C61.842324,119.660628 62.2795306,120.680362 62.2501581,121.738179 C62.2207856,122.795997 61.7276239,123.791419 60.8945062,124.474495 C60.798487,124.552683 60.6983066,124.625931 60.5943779,124.693939 L61.1727247,143.635623 C61.206537,144.90893 60.3753141,146.052968 59.1277867,146.450137 L59.0925563,146.457478 L43.2387773,148.095313 C42.0659021,148.216315 40.9163063,147.717407 40.2275968,146.788504 C39.5388873,145.859601 39.417014,144.643604 39.9083695,143.603397 C40.399725,142.563189 41.4287199,141.858795 42.6036553,141.75835 L53.9049414,140.792793 L55.8593858,124.389047 C55.7315437,124.279278 55.611816,124.160925 55.5010883,124.034863 C54.2315847,122.577294 54.30741,120.423599 55.6764692,119.053455 C57.0455284,117.68331 59.2621697,117.54272 60.8034705,118.728275 L60.8034631,118.728268 Z" id="Path" fill="#A0616A"></path>
                        <polygon id="Path" fill="#A0616A" points="53.761756 245.283019 58.2363532 245.283019 60.3647559 228.301887 53.7609823 228.301887"></polygon>
                        <path d="M52.8175861,243.396578 L61.4603023,243.396226 L61.4606514,243.396226 C62.921429,243.396226 64.3223895,243.973709 65.3553231,245.001736 C66.3882568,246.029764 66.9685295,247.424083 66.9685295,248.877944 L66.9685295,249.056079 L52.8178327,249.056604 L52.8175861,243.396578 Z" id="Path" fill="#2F2E41"></path>
                        <polygon id="Path" fill="#A0616A" points="10.3647559 239.238759 14.1158448 241.509434 24.5156993 227.879629 18.9792762 224.528302"></polygon>
                        <path d="M9.54110244,237.735849 L17.0708572,242.207801 L17.0711611,242.207981 C18.343816,242.963838 19.2633184,244.193041 19.6273788,245.625166 C19.9914393,247.057292 19.7702342,248.575022 19.0124285,249.844457 L18.9195783,250 L6.59117096,242.678049 L9.54110244,237.735849 Z" id="Path" fill="#2F2E41"></path>
                        <path d="M58.7240804,239.622642 L53.8190839,239.622642 C52.9963999,239.623948 52.3059475,239.005844 52.2203433,238.19142 L47.2753924,191.924557 C47.2497436,191.685143 47.0661795,191.492491 46.8273446,191.454326 C46.5885096,191.416162 46.3535864,191.541942 46.253938,191.761334 L37.3331598,211.42299 L21.5393976,237.057149 C21.1168372,237.73645 20.2572765,238.003891 19.5212606,237.685067 L13.2117815,234.921963 C12.7897688,234.737022 12.4678047,234.380681 12.3276484,233.943431 C12.1874922,233.506181 12.2426269,233.030084 12.4790517,232.63604 L26.9978668,208.438311 L31.4506665,188.050452 C30.0501981,179.208898 36.0539446,166.063989 36.114823,165.932001 L36.1445711,165.867753 L52.6821026,159.433962 L52.7650412,159.535025 C59.2869528,180.838353 63.2611214,203.764357 60.3267332,238.156363 C60.2517445,238.983073 59.5580075,239.617777 58.7240804,239.622642 Z" id="Path" fill="#2F2E41"></path>
                        <path d="M35.3519662,167.924528 L35.2771986,167.76468 C35.2414708,167.688198 31.6720746,160.030607 28.9205345,151.846272 C27.8513917,148.64639 28.1498835,145.137166 29.7434527,142.171621 C31.3577431,139.175397 34.1329154,137.004718 37.3943257,136.187275 L37.3943257,136.187275 C43.182277,134.776146 49.1133812,137.889013 51.3368405,143.504833 C53.5194054,149.056484 52.8238117,154.982191 52.1692098,159.642274 L52.1561708,159.735631 L52.0726835,159.776284 L35.3519662,167.924528 Z" id="Path" fill="#3F3D56"></path>
                        <path d="M48.1006049,118.867925 L33.9496615,118.867925 L33.9496615,112.673577 C37.055635,111.434433 40.0949919,110.38061 41.9322447,112.673577 C45.3389251,112.673596 48.1006049,115.446884 48.1006049,118.867925 L48.1006049,118.867925 Z" id="Path" fill="#2F2E41"></path>
                        <path d="M34.8931444,111.320755 C26.7851377,111.320755 24.5156993,121.456864 24.5156993,127.175155 C24.5156993,130.36418 25.9617626,131.504779 28.2340799,131.890721 L29.0365768,127.622124 L30.9161459,132.074405 C31.5544411,132.077582 32.2250009,132.065259 32.9201803,132.052388 L33.5574581,130.743663 L34.9785554,132.028911 C40.6702393,132.037366 45.2704162,132.864844 45.2704162,127.175155 C45.2704162,121.456864 43.2801384,111.320755 34.8931444,111.320755 Z" id="Path" fill="#2F2E41"></path>
                        <path d="M74.1363956,250 L1.31009724,250 C1.10061363,250 0.930793605,249.788814 0.930793605,249.528302 C0.930793605,249.26779 1.10061363,249.056604 1.31009724,249.056604 L74.1363956,249.056604 C74.3458792,249.056604 74.5156993,249.26779 74.5156993,249.528302 C74.5156993,249.788814 74.3458792,250 74.1363956,250 Z" id="Path" fill="#CCCCCC"></path>
                        <path d="M75.6188642,125.471698 L59.2615909,125.471698 C57.2666748,125.469432 55.6500409,123.852798 55.6477747,121.857882 L55.6477747,105.500609 C55.6500409,103.505692 57.2666748,101.889059 59.2615909,101.886792 L75.6188642,101.886792 C77.6137804,101.889059 79.2304143,103.505692 79.2326804,105.500609 L79.2326804,121.857882 C79.2304143,123.852798 77.6137804,125.469432 75.6188642,125.471698 L75.6188642,125.471698 Z" id="Path" fill="#FFFFFF"></path>
                        <path d="M75.6188642,125.471698 L59.2615909,125.471698 C57.2666748,125.469432 55.6500409,123.852798 55.6477747,121.857882 L55.6477747,105.500609 C55.6500409,103.505692 57.2666748,101.889059 59.2615909,101.886792 L75.6188642,101.886792 C77.6137804,101.889059 79.2304143,103.505692 79.2326804,105.500609 L79.2326804,121.857882 C79.2304143,123.852798 77.6137804,125.469432 75.6188642,125.471698 L75.6188642,125.471698 Z M59.2615909,102.647596 C57.686642,102.649348 56.4103308,103.92566 56.4085781,105.500609 L56.4085781,121.857882 C56.4103308,123.432831 57.686642,124.709142 59.2615909,124.710895 L75.6188642,124.710895 C77.1938131,124.709142 78.4701244,123.432831 78.471877,121.857882 L78.471877,105.500609 C78.4701244,103.92566 77.1938131,102.649348 75.6188642,102.647596 L59.2615909,102.647596 Z" id="Shape" fill="#3F3D56"></path>
                        <path d="M72.4901721,117.924528 L62.3902831,117.924528 C61.7929089,117.923897 61.3088042,117.454964 61.3081521,116.876311 L61.3081521,109.53879 C61.3088042,108.960138 61.7929089,108.491205 62.3902831,108.490566 L65.2335172,108.490566 C65.6096362,108.489226 65.9591469,108.678333 66.155197,108.989259 L66.9481249,110.237602 L72.4901721,110.237602 C73.0875462,110.238234 73.571651,110.707167 73.572303,111.285819 L73.572303,116.876311 C73.571651,117.454964 73.0875462,117.923897 72.4901721,117.924528 L72.4901721,117.924528 Z" id="Path" fill="#8CD9DC"></path>
                        <path d="M71.2233671,123.729383 C71.2740354,123.825938 71.3208334,123.925258 71.3637611,124.027341 C71.7973682,125.04707 71.7925097,126.210942 71.3504058,127.226709 C70.9083019,128.242476 70.0709466,129.013653 69.0486,129.346597 C68.9309832,129.384449 68.8115401,129.415852 68.690763,129.440676 L61.7737597,148.067472 C61.3041939,149.317602 60.1024905,150.099014 58.8173805,149.989868 L58.7826134,149.983021 L43.7905067,145.284508 C42.6813225,144.936851 41.8366961,143.996215 41.5781864,142.820713 C41.3196767,141.64521 41.6870585,140.415705 42.5404654,139.600285 C43.3938723,138.784864 44.6019973,138.508991 45.7048934,138.877693 L56.3126082,142.423157 L64.5250382,127.266138 C64.4524501,127.108809 64.3905774,126.946361 64.3398779,126.779996 C63.7635327,124.860722 64.6781611,122.799089 66.455408,122.011453 C68.2326548,121.223816 70.2940362,121.966546 71.2233707,123.729383 L71.2233671,123.729383 Z" id="Path" fill="#A0616A"></path>
                    </g>
                </g>
            </g>
        </g>
    </g>
</svg>